<?xml version="1.0" encoding="UTF-8"?>
<svg id="_Слой_2" data-name="Слой 2" xmlns="http://www.w3.org/2000/svg" viewBox="0 0 511.84 511.83">
  <defs>
    <style>
      .cls-1 {
        fill: #0081f6;
      }

      .cls-1, .cls-2, .cls-3, .cls-4, .cls-5 {
        stroke-width: 0px;
      }

      .cls-2 {
        fill: #fcfdfe;
      }

      .cls-3 {
        fill: #00a0f9;
      }

      .cls-4 {
        fill: #00b3fa;
      }

      .cls-5 {
        fill: #0096f8;
      }
    </style>
  </defs>
  <g id="_Слой_1-2" data-name="Слой 1">
    <g>
      <path class="cls-1" d="m511.84,308.9v115.96c-1.62,1.53-1.67,1.52-1.89,2.88-3.2,19.53-12.61,36.09-25.51,50.56-15.02,16.86-34.06,27.19-56.27,31.6-1.21.24-3.3-.54-3.3,1.94H86.97c-1.41-1.59-1.41-1.55-3.82-2.05-18.84-3.86-35.51-12.11-49.61-25.2-16.62-15.43-27.64-34.11-31.7-56.64-.15-.85.48-2.95-1.85-2.09v-111.96c22.87.07,45.73.14,68.6.21-2.16,17.09,7.92,28.34,25.68,28.35,68.12.05,136.25-.02,204.37.12,3.98,0,5.44-1.54,6.59-4.99,3-8.97.91-17.34-2.33-25.67,1.99-2.98,5.07-1.72,7.75-1.99,7.03,12.04,14.1,24.07,21.09,36.13,11.38,19.65,22.56,39.42,34.13,58.95,8.33,14.06,26.59,15.98,37.41,4.29,6.77-7.31,8.13-17.78,2.96-27.24-6.38-11.68-13.17-23.13-19.77-34.68-2.67-4.67-2.66-4.71,2.52-4.72,8.83-.03,17.66,0,26.48-.01,6.35,0,12.29-1.42,17.06-5.86,8.41-7.82,9.8-17.25,5.92-27.76,24.46-.05,48.92-.09,73.37-.14Zm-380,41.85c-3.32-.16-7.24.58-11.12,1.56-1.57.4-3.07.82-4.04,2.54-5.45,9.71-11.64,19.06-16.43,29.07-5.33,11.14-2.22,19.99,4.61,26.86,10.21,10.26,28.35,7.7,36.02-4.74,7.42-12.02,14.18-24.44,21.29-36.65,1.21-2.08,1.39-3.65-.49-5.59-7.99-8.29-17.39-13.24-29.85-13.05Z"/>
      <path class="cls-4" d="m511.84,88.97v61.98c-74.37-.02-148.74-.04-223.1-.06.9-1.77,1.75-3.56,2.72-5.29,4.71-8.4,9.91-16.55,14.06-25.22,5.73-11.97-.77-26.21-13.31-30.64-13.13-4.64-24.52.61-30.95,14.28-2.11,4.48-4.56,8.75-7.69,13.24-3.35-5.89-6.39-11.38-9.57-16.78-7.05-12-20.73-16.09-32.14-9.45-11.2,6.51-15.74,19.89-8.29,32.68,3.68,6.31,7.16,12.74,10.73,19.11-2.64,1.36-5.49,1.13-8.31,1.13-68.66,0-137.32,0-205.98,0v-57.98c2.21.6,1.71-1.3,1.87-2.24.65-3.89,1.61-7.69,2.9-11.42C18.04,33.95,44.51,10.47,84.18,1.85c1.08-.24,2.94.38,2.79-1.85h335.89c-.21.23-.65.6-.6.68,1.37,2.29,3.63.78,5.45,1.21,24.82,5.76,45.72,17.76,61.67,38,11.13,14.12,18.99,29.52,20.54,47.71.09,1.05.29,2.28,1.91,1.38Z"/>
      <path class="cls-3" d="m0,143.95c68.66,0,137.32,0,205.98,0,2.82,0,5.67.23,8.31-1.13,3.54,5.99,6.98,12.05,10.68,17.94,1.52,2.42,1.44,4.29-.02,6.74-9.98,16.84-19.76,33.8-29.7,50.66-7.84,13.31-14.66,27.2-23.09,40.16-1.77-3.17-4.85-2.39-7.58-2.39-54.86-.03-109.72-.02-164.58-.02v-111.96Z"/>
      <path class="cls-3" d="m288.73,150.89c74.37.02,148.74.04,223.1.06v88.97c-58.85,0-117.69,0-176.54,0-3.32,0-6.7-.23-9.47,2.17-.32-.35-.73-.65-.96-1.06-11.48-19.86-22.92-39.74-34.47-59.57-1.15-1.97-2.35-5.81-5.53-1.87-4.07,5.06-7.51,10.5-9.98,16.59-3.61,8.93-4.9,18.21-4.93,27.74-5.49,0-10.98,0-16.47,0-2.19,0-4.4.08-5.68-2.22,12.96-24,26.85-47.46,40.91-70.82Z"/>
      <path class="cls-5" d="m325.82,242.09c2.77-2.4,6.15-2.17,9.47-2.17,58.85,0,117.69,0,176.54,0v68.98c-24.46.05-48.92.09-73.37.14-5.43-9.39-13.55-13.4-24.38-13.18-16.27.32-32.56-.3-48.81.27-6.56.23-9.97-1.84-13.03-7.57-8.41-15.7-17.55-31-26.4-46.46Z"/>
      <path class="cls-5" d="m0,255.91c54.86,0,109.72,0,164.58.02,2.73,0,5.81-.78,7.58,2.39-6.38,11.24-12.86,22.42-19.06,33.75-1.56,2.84-3.25,3.91-6.56,3.87-17.6-.19-35.2-.1-52.8-.08-13.39.01-20.88,5.46-25.14,18.23-22.87-.07-45.73-.14-68.6-.21v-57.98Z"/>
      <path class="cls-2" d="m68.6,314.1c4.26-12.77,11.75-18.22,25.14-18.23,17.6-.02,35.2-.1,52.8.08,3.31.04,5-1.03,6.56-3.87,6.21-11.33,12.69-22.51,19.06-33.75,8.43-12.97,15.25-26.86,23.09-40.16,9.94-16.86,19.72-33.82,29.7-50.66,1.45-2.45,1.54-4.32.02-6.74-3.7-5.89-7.14-11.95-10.68-17.94-3.57-6.38-7.05-12.8-10.73-19.11-7.45-12.78-2.91-26.16,8.29-32.68,11.41-6.64,25.09-2.55,32.14,9.45,3.18,5.4,6.21,10.89,9.57,16.78,3.13-4.49,5.58-8.76,7.69-13.24,6.43-13.67,17.81-18.92,30.95-14.28,12.54,4.43,19.03,18.67,13.31,30.64-4.15,8.66-9.35,16.82-14.06,25.22-.97,1.73-1.81,3.52-2.72,5.29-14.06,23.37-27.96,46.82-40.91,70.82-12.29,21.07-24.58,42.13-36.86,63.2-1.98,3.4-3.89,6.83-6.23,10.96h5.51c20.28,0,40.58.48,60.84-.16,13.99-.44,24.55,4.27,31.83,16.22,3.25,8.33,5.33,16.69,2.33,25.67-1.15,3.45-2.62,5-6.59,4.99-68.12-.13-136.25-.07-204.37-.12-17.75-.01-27.84-11.26-25.68-28.35Z"/>
      <path class="cls-2" d="m325.82,242.09c8.85,15.46,18,30.76,26.4,46.46,3.07,5.73,6.47,7.8,13.03,7.57,16.25-.57,32.55.05,48.81-.27,10.83-.21,18.95,3.8,24.38,13.18,3.88,10.5,2.49,19.93-5.92,27.76-4.77,4.43-10.71,5.85-17.06,5.86-8.83.01-17.66-.01-26.48.01-5.18.01-5.19.05-2.52,4.72,6.6,11.55,13.39,23,19.77,34.68,5.17,9.47,3.81,19.93-2.96,27.24-10.82,11.69-29.08,9.77-37.41-4.29-11.57-19.54-22.75-39.31-34.13-58.95-6.99-12.07-14.06-24.09-21.09-36.13-8.05-14.1-15.87-28.35-24.23-42.26-8.18-13.62-15.42-27.48-16.46-43.73.02-9.53,1.31-18.81,4.93-27.74,2.46-6.09,5.91-11.54,9.98-16.59,3.17-3.94,4.38-.1,5.53,1.87,11.54,19.82,22.98,39.71,34.47,59.57.23.4.64.71.96,1.06Z"/>
      <path class="cls-5" d="m269.97,223.93c1.03,16.26,8.27,30.11,16.46,43.73,8.36,13.92,16.18,28.16,24.23,42.26-2.68.27-5.76-.99-7.75,1.99-7.28-11.95-17.84-16.66-31.83-16.22-20.26.64-40.56.16-60.84.16h-5.51c2.34-4.12,4.25-7.56,6.23-10.96,12.28-21.07,24.57-42.13,36.86-63.2,1.29,2.3,3.5,2.22,5.68,2.22,5.49,0,10.98,0,16.47,0Z"/>
      <path class="cls-2" d="m131.83,350.75c12.46-.19,21.86,4.76,29.85,13.05,1.87,1.95,1.69,3.52.49,5.59-7.11,12.21-13.87,24.63-21.29,36.65-7.68,12.45-25.82,15-36.02,4.74-6.84-6.87-9.94-15.72-4.61-26.86,4.79-10.02,10.98-19.37,16.43-29.07.97-1.72,2.46-2.15,4.04-2.54,3.88-.98,7.8-1.72,11.12-1.56Z"/>
    </g>
  </g>
</svg>