<?xml version="1.0" encoding="UTF-8"?>
<svg id="_Слой_2" data-name="Слой 2" xmlns="http://www.w3.org/2000/svg" viewBox="0 0 114.53 127.35">
  <defs>
    <style>
      .cls-1 {
        fill: #f42f4b;
      }

      .cls-1, .cls-2, .cls-3, .cls-4, .cls-5, .cls-6, .cls-7, .cls-8, .cls-9, .cls-10, .cls-11, .cls-12, .cls-13, .cls-14 {
        stroke-width: 0px;
      }

      .cls-2 {
        fill: #00c4fe;
      }

      .cls-3 {
        fill: #fbc701;
      }

      .cls-4 {
        fill: #00d9fe;
      }

      .cls-5 {
        fill: #00dffe;
      }

      .cls-6 {
        fill: #e22656;
      }

      .cls-7 {
        fill: #ee2950;
      }

      .cls-8 {
        fill: #fbd000;
      }

      .cls-9 {
        fill: #f93646;
      }

      .cls-10 {
        fill: #00ec6e;
      }

      .cls-11 {
        fill: #00de6f;
      }

      .cls-12 {
        fill: #00cbfe;
      }

      .cls-13 {
        fill: #00d3fe;
      }

      .cls-14 {
        fill: #f9bf03;
      }
    </style>
  </defs>
  <g id="_Слой_1-2" data-name="Слой 1">
    <g>
      <path class="cls-11" d="m2.38,2.44c-.24-.82,1.95-1.58.05-2.44h9.96c-.83,2.13,1.05,2.32,2.19,2.98,2.62,1.52,5.27,3,7.91,4.49-.81,3.78-3.74,5.74-6.65,7.71C11.35,10.93,6.87,6.69,2.38,2.44Z"/>
      <path class="cls-6" d="m2.43,127.35c1.83-.82-.21-1.62,0-2.43,4-3.78,8-7.57,12-11.35.68,3.27,4.2,4.75,4.99,7.94-1.74,2.67-6.34,1.91-7.02,5.84H2.43Z"/>
      <path class="cls-10" d="m15.84,15.18c2.91-1.97,5.84-3.93,6.65-7.71,20.7,11.77,41.4,23.54,62.11,35.31-2.14,2.38-4.27,4.76-6.41,7.14-4.9,4.3-9.5,8.91-13.83,13.79-.27.05-.53.05-.8,0-1.57-1.7-3.08-3.46-4.71-5.1-14.33-14.49-28.68-28.96-43.02-43.43Z"/>
      <path class="cls-9" d="m63.57,63.71c.27.05.53.05.8,0,4.36,4.83,8.84,9.54,13.84,13.72,2.12,2.38,4.24,4.76,6.36,7.15-7.11,4.01-14.22,8.03-21.33,12.04-3.81-6.74-9.77-11.44-15.55-16.31.24-.46.48-.92.72-1.38,2.97-2.34,5.6-5.02,7.97-7.96,2.71-2.12,5.16-4.49,7.2-7.26Z"/>
      <path class="cls-3" d="m84.56,84.58c-2.12-2.38-4.24-4.76-6.36-7.15,1.47-9.17,1.49-18.35-.01-27.52,2.14-2.38,4.27-4.76,6.41-7.14,3.34,1.89,6.68,3.78,10.02,5.67-.45.67-1.27,1.33-1.28,2-.09,8.82-.09,17.64,0,26.46,0,.67.84,1.33,1.29,1.99-3.16,2.24-6.51,4.15-10.06,5.69Z"/>
      <path class="cls-1" d="m47.68,80.31c5.78,4.87,11.74,9.56,15.55,16.31-6.56,4.65-13.87,7.99-20.87,11.87-4.03-3.6-8.58-6.73-11-11.82,2.42-2.66,4.84-5.31,7.26-7.97,3.02-2.79,6.04-5.59,9.06-8.38Z"/>
      <path class="cls-8" d="m94.63,78.89c-.45-.66-1.28-1.32-1.29-1.99-.09-8.82-.09-17.64,0-26.46,0-.67.83-1.33,1.28-2,5.17,2.89,10.5,5.53,15.47,8.72,5.93,3.81,5.93,9.19,0,13.01-4.96,3.2-10.29,5.83-15.46,8.72Z"/>
      <path class="cls-7" d="m31.36,96.66c2.42,5.1,6.97,8.22,11,11.82-7.31,4.93-15.22,8.82-22.95,13.01-.79-3.19-4.32-4.68-4.99-7.94,4.68-4.91,9.36-9.83,14.05-14.74.96-.72,1.93-1.44,2.89-2.16Z"/>
      <path class="cls-13" d="m47.68,80.31c-3.02,2.79-6.04,5.59-9.06,8.38-1.38-1.15-2.85-2.21-4.12-3.48-9.8-9.73-19.56-19.52-29.34-29.26-1.38-1.37-2.56-3.07-4.78-3.22-.48-6.96-.46-13.93,0-20.89,2.42.19,3.66,2.12,5.16,3.61,11.27,11.22,22.55,22.43,33.74,33.72,3.13,3.16,6.73,5.92,9.13,9.77-.24.46-.48.92-.72,1.38Z"/>
      <path class="cls-12" d="m48.39,78.94c-2.4-3.85-5.99-6.6-9.13-9.77-11.19-11.3-22.47-22.51-33.74-33.72-1.5-1.49-2.73-3.42-5.16-3.61-.48-5.31-.44-10.61,0-15.92,2.23.15,3.42,1.87,4.8,3.25,16.03,15.99,32.06,31.99,48.06,48.01,1.15,1.16,2.1,2.53,3.14,3.8-2.37,2.94-5,5.62-7.97,7.96Z"/>
      <path class="cls-2" d="m56.36,70.97c-1.04-1.27-1.98-2.64-3.14-3.8C37.23,51.15,21.2,35.15,5.17,19.16c-1.38-1.38-2.57-3.09-4.8-3.25-.09-4.61-1.53-9.41,2.01-13.48,4.49,4.25,8.97,8.49,13.46,12.74,14.34,14.47,28.69,28.94,43.02,43.43,1.63,1.64,3.14,3.4,4.71,5.1-2.05,2.77-4.5,5.15-7.2,7.26Z"/>
      <path class="cls-5" d="m28.47,98.82c-4.68,4.91-9.36,9.83-14.05,14.74-4,3.78-8,7.57-12,11.35-2.07-1.4-2.23-3.63-2.23-5.74,0-15.85.1-31.69.17-47.54.76.28,1.73.36,2.25.88,8.69,8.7,17.9,16.9,25.86,26.31Z"/>
      <path class="cls-4" d="m28.47,98.82c-7.96-9.42-17.17-17.61-25.86-26.31-.52-.52-1.49-.6-2.25-.88-.48-6.3-.46-12.6,0-18.9,2.22.15,3.4,1.85,4.78,3.22,9.79,9.75,19.54,19.53,29.34,29.26,1.27,1.26,2.74,2.32,4.12,3.48-2.42,2.66-4.84,5.32-7.26,7.97-.96.72-1.93,1.44-2.89,2.16Z"/>
      <path class="cls-14" d="m78.19,49.92c1.5,9.17,1.48,18.34.01,27.52-5-4.19-9.48-8.9-13.84-13.72,4.32-4.88,8.92-9.49,13.83-13.79Z"/>
    </g>
  </g>
</svg>