<?xml version="1.0" encoding="UTF-8"?>
<svg id="_Слой_2" data-name="Слой 2" xmlns="http://www.w3.org/2000/svg" viewBox="0 0 187.85 187.86">
  <defs>
    <style>
      .cls-1 {
      fill: #662702;
      }

      .cls-1, .cls-2, .cls-3, .cls-4, .cls-5, .cls-6, .cls-7, .cls-8, .cls-9, .cls-10, .cls-11, .cls-12, .cls-13,
      .cls-14, .cls-15, .cls-16, .cls-17, .cls-18, .cls-19, .cls-20, .cls-21, .cls-22, .cls-23, .cls-24, .cls-25,
      .cls-26, .cls-27, .cls-28, .cls-29, .cls-30, .cls-31, .cls-32, .cls-33, .cls-34, .cls-35, .cls-36, .cls-37,
      .cls-38, .cls-39, .cls-40, .cls-41, .cls-42, .cls-43, .cls-44, .cls-45, .cls-46, .cls-47, .cls-48, .cls-49,
      .cls-50, .cls-51, .cls-52, .cls-53, .cls-54, .cls-55, .cls-56, .cls-57, .cls-58, .cls-59, .cls-60, .cls-61,
      .cls-62, .cls-63, .cls-64, .cls-65, .cls-66, .cls-67, .cls-68, .cls-69, .cls-70, .cls-71, .cls-72, .cls-73,
      .cls-74, .cls-75, .cls-76, .cls-77, .cls-78, .cls-79, .cls-80, .cls-81, .cls-82, .cls-83, .cls-84, .cls-85,
      .cls-86, .cls-87, .cls-88, .cls-89, .cls-90, .cls-91, .cls-92, .cls-93, .cls-94, .cls-95, .cls-96, .cls-97,
      .cls-98, .cls-99, .cls-100, .cls-101, .cls-102, .cls-103, .cls-104, .cls-105, .cls-106, .cls-107, .cls-108,
      .cls-109, .cls-110, .cls-111, .cls-112, .cls-113, .cls-114, .cls-115, .cls-116, .cls-117, .cls-118, .cls-119,
      .cls-120, .cls-121, .cls-122, .cls-123, .cls-124, .cls-125, .cls-126, .cls-127, .cls-128, .cls-129, .cls-130,
      .cls-131, .cls-132, .cls-133, .cls-134, .cls-135, .cls-136, .cls-137, .cls-138, .cls-139, .cls-140, .cls-141,
      .cls-142, .cls-143, .cls-144, .cls-145, .cls-146, .cls-147, .cls-148, .cls-149, .cls-150, .cls-151, .cls-152,
      .cls-153, .cls-154, .cls-155, .cls-156, .cls-157, .cls-158, .cls-159, .cls-160, .cls-161, .cls-162, .cls-163,
      .cls-164, .cls-165, .cls-166, .cls-167, .cls-168, .cls-169, .cls-170, .cls-171, .cls-172, .cls-173, .cls-174,
      .cls-175, .cls-176, .cls-177, .cls-178, .cls-179, .cls-180, .cls-181, .cls-182, .cls-183, .cls-184, .cls-185,
      .cls-186, .cls-187, .cls-188, .cls-189, .cls-190, .cls-191, .cls-192, .cls-193, .cls-194, .cls-195, .cls-196,
      .cls-197, .cls-198, .cls-199, .cls-200, .cls-201, .cls-202, .cls-203, .cls-204, .cls-205, .cls-206, .cls-207,
      .cls-208, .cls-209, .cls-210, .cls-211, .cls-212, .cls-213, .cls-214, .cls-215, .cls-216, .cls-217, .cls-218,
      .cls-219, .cls-220, .cls-221, .cls-222, .cls-223, .cls-224, .cls-225, .cls-226, .cls-227, .cls-228, .cls-229,
      .cls-230, .cls-231, .cls-232, .cls-233, .cls-234, .cls-235, .cls-236, .cls-237, .cls-238, .cls-239, .cls-240,
      .cls-241, .cls-242, .cls-243, .cls-244, .cls-245, .cls-246, .cls-247, .cls-248, .cls-249, .cls-250, .cls-251,
      .cls-252, .cls-253, .cls-254, .cls-255, .cls-256, .cls-257, .cls-258, .cls-259, .cls-260, .cls-261, .cls-262,
      .cls-263, .cls-264, .cls-265, .cls-266, .cls-267, .cls-268, .cls-269, .cls-270, .cls-271, .cls-272, .cls-273,
      .cls-274, .cls-275, .cls-276, .cls-277, .cls-278, .cls-279, .cls-280 {
      stroke-width: 0px;
      }

      .cls-2 {
      fill: #692c06;
      }

      .cls-3 {
      fill: #2c1209;
      }

      .cls-4 {
      fill: #692906;
      }

      .cls-5 {
      fill: #a01e1b;
      }

      .cls-6 {
      fill: #fefefe;
      }

      .cls-7 {
      fill: #622b1c;
      }

      .cls-8 {
      fill: #e1bb8b;
      }

      .cls-9 {
      fill: #a75010;
      }

      .cls-10 {
      fill: #56270c;
      }

      .cls-11 {
      fill: #99211d;
      }

      .cls-12 {
      fill: #632907;
      }

      .cls-13 {
      fill: #632016;
      }

      .cls-14 {
      fill: #ddad6d;
      }

      .cls-15 {
      fill: #5d2202;
      }

      .cls-16 {
      fill: #270b01;
      }

      .cls-17 {
      fill: #5f2603;
      }

      .cls-18 {
      fill: #dbb069;
      }

      .cls-19 {
      fill: #794c27;
      }

      .cls-20 {
      fill: #e1d6ce;
      }

      .cls-21 {
      fill: #232121;
      }

      .cls-22 {
      fill: #50250d;
      }

      .cls-23 {
      fill: #a85513;
      }

      .cls-24 {
      fill: #8e3808;
      }

      .cls-25 {
      fill: #dfe1e2;
      }

      .cls-26 {
      fill: #3a5b6f;
      }

      .cls-27 {
      fill: #e0b37a;
      }

      .cls-28 {
      fill: #a65212;
      }

      .cls-29 {
      fill: #3f1c0d;
      }

      .cls-30 {
      fill: #351202;
      }

      .cls-31 {
      fill: #491b02;
      }

      .cls-32 {
      fill: #9e490e;
      }

      .cls-33 {
      fill: #652704;
      }

      .cls-34 {
      fill: #7e3106;
      }

      .cls-35 {
      fill: #451901;
      }

      .cls-36 {
      fill: #873606;
      }

      .cls-37 {
      fill: #eacda8;
      }

      .cls-38 {
      fill: #561e00;
      }

      .cls-39 {
      fill: #ab530f;
      }

      .cls-40 {
      fill: #622502;
      }

      .cls-41 {
      fill: #f0d7b4;
      }

      .cls-42 {
      fill: #4e2a17;
      }

      .cls-43 {
      fill: #260c02;
      }

      .cls-44 {
      fill: #2e150c;
      }

      .cls-45 {
      fill: #edd7b9;
      }

      .cls-46 {
      fill: #7b3107;
      }

      .cls-47 {
      fill: #3f1c0f;
      }

      .cls-48 {
      fill: #6e4e3d;
      }

      .cls-49 {
      fill: #deb46d;
      }

      .cls-50 {
      fill: #742d03;
      }

      .cls-51 {
      fill: #632602;
      }

      .cls-52 {
      fill: #d29b56;
      }

      .cls-53 {
      fill: #edd1a5;
      }

      .cls-54 {
      fill: #c57f2b;
      }

      .cls-55 {
      fill: #5e2607;
      }

      .cls-56 {
      fill: #3e1400;
      }

      .cls-57 {
      fill: #6e2c07;
      }

      .cls-58 {
      fill: #3d1f13;
      }

      .cls-59 {
      fill: #522003;
      }

      .cls-60 {
      fill: #3d1b0b;
      }

      .cls-61 {
      fill: #e5c7a1;
      }

      .cls-62 {
      fill: #856651;
      }

      .cls-63 {
      fill: #ddc9b3;
      }

      .cls-64 {
      fill: #5f3d25;
      }

      .cls-65 {
      fill: #742c05;
      }

      .cls-66 {
      fill: #5d2402;
      }

      .cls-67 {
      fill: #3f1706;
      }

      .cls-68 {
      fill: #9b410a;
      }

      .cls-69 {
      fill: #cc8630;
      }

      .cls-70 {
      fill: #622e0e;
      }

      .cls-71 {
      fill: #391d10;
      }

      .cls-72 {
      fill: #d19851;
      }

      .cls-73 {
      fill: #86360a;
      }

      .cls-74 {
      fill: #210903;
      }

      .cls-75 {
      fill: #230900;
      }

      .cls-76 {
      fill: #290d02;
      }

      .cls-77 {
      fill: #7f3201;
      }

      .cls-78 {
      fill: #6d2a02;
      }

      .cls-79 {
      fill: #dba561;
      }

      .cls-80 {
      fill: #9c5515;
      }

      .cls-81 {
      fill: #d7a669;
      }

      .cls-82 {
      fill: #341305;
      }

      .cls-83 {
      fill: #2b0d00;
      }

      .cls-84 {
      fill: #3e1b08;
      }

      .cls-85 {
      fill: #f2e1cc;
      }

      .cls-86 {
      fill: #ede2d4;
      }

      .cls-87 {
      fill: #edcf9f;
      }

      .cls-88 {
      fill: #642603;
      }

      .cls-89 {
      fill: #4e1c00;
      }

      .cls-90 {
      fill: #68462c;
      }

      .cls-91 {
      fill: #50230a;
      }

      .cls-92 {
      fill: #250b05;
      }

      .cls-93 {
      fill: #5a2808;
      }

      .cls-94 {
      fill: #a55613;
      }

      .cls-95 {
      fill: #e0b87e;
      }

      .cls-96 {
      fill: #8d3a0d;
      }

      .cls-97 {
      fill: #b22321;
      }

      .cls-98 {
      fill: #913a09;
      }

      .cls-99 {
      fill: #4f2b19;
      }

      .cls-100 {
      fill: #886e52;
      }

      .cls-101 {
      fill: #7e3101;
      }

      .cls-102 {
      fill: #853f09;
      }

      .cls-103 {
      fill: #46362e;
      }

      .cls-104 {
      fill: #d69f5a;
      }

      .cls-105 {
      fill: #250a01;
      }

      .cls-106 {
      fill: #9a4c0f;
      }

      .cls-107 {
      fill: #efe0cf;
      }

      .cls-108 {
      fill: #411d0e;
      }

      .cls-109 {
      fill: #230c06;
      }

      .cls-110 {
      fill: #963c0a;
      }

      .cls-111 {
      fill: #ddb17b;
      }

      .cls-112 {
      fill: #353b47;
      }

      .cls-113 {
      fill: #85350a;
      }

      .cls-114 {
      fill: #783405;
      }

      .cls-115 {
      fill: #65300e;
      }

      .cls-116 {
      fill: #5e2504;
      }

      .cls-117 {
      fill: #f0e7dc;
      }

      .cls-118 {
      fill: #503a2e;
      }

      .cls-119 {
      fill: #3a1c0e;
      }

      .cls-120 {
      fill: #502008;
      }

      .cls-121 {
      fill: #350f00;
      }

      .cls-122 {
      fill: #5d2406;
      }

      .cls-123 {
      fill: #3f2316;
      }

      .cls-124 {
      fill: #c68638;
      }

      .cls-125 {
      fill: #efdabd;
      }

      .cls-126 {
      fill: #ddb684;
      }

      .cls-127 {
      fill: #e9d3b6;
      }

      .cls-128 {
      fill: #4d1e05;
      }

      .cls-129 {
      fill: #e5c49a;
      }

      .cls-130 {
      fill: #ece0d2;
      }

      .cls-131 {
      fill: #341306;
      }

      .cls-132 {
      fill: #dee5ea;
      }

      .cls-133 {
      fill: #e4be8e;
      }

      .cls-134 {
      fill: #883808;
      }

      .cls-135 {
      fill: #6e2d03;
      }

      .cls-136 {
      fill: #e2bd8d;
      }

      .cls-137 {
      fill: #dbac72;
      }

      .cls-138 {
      fill: #cea36f;
      }

      .cls-139 {
      fill: #8b6950;
      }

      .cls-140 {
      fill: #232021;
      }

      .cls-141 {
      fill: #692a06;
      }

      .cls-142 {
      fill: #34180c;
      }

      .cls-143 {
      fill: #b15b16;
      }

      .cls-144 {
      fill: #230a03;
      }

      .cls-145 {
      fill: #dcb17c;
      }

      .cls-146 {
      fill: #ecdbc6;
      }

      .cls-147 {
      fill: #622712;
      }

      .cls-148 {
      fill: #6a2b05;
      }

      .cls-149 {
      fill: #412820;
      }

      .cls-150 {
      fill: #491f09;
      }

      .cls-151 {
      fill: #673817;
      }

      .cls-152 {
      fill: #dba35d;
      }

      .cls-153 {
      fill: #b35e1a;
      }

      .cls-154 {
      fill: #ac5814;
      }

      .cls-155 {
      fill: #5f2818;
      }

      .cls-156 {
      fill: #752d03;
      }

      .cls-157 {
      fill: #56261b;
      }

      .cls-158 {
      fill: #ead4b9;
      }

      .cls-159 {
      fill: #3f1500;
      }

      .cls-160 {
      fill: #412012;
      }

      .cls-161 {
      fill: #af5f1d;
      }

      .cls-162 {
      fill: #efddc5;
      }

      .cls-163 {
      fill: #8b3809;
      }

      .cls-164 {
      fill: #9d6839;
      }

      .cls-165 {
      fill: #321206;
      }

      .cls-166 {
      fill: #549fc9;
      }

      .cls-167 {
      fill: #dcb583;
      }

      .cls-168 {
      fill: #714e3b;
      }

      .cls-169 {
      fill: #9d400a;
      }

      .cls-170 {
      fill: #4f2714;
      }

      .cls-171 {
      fill: #efdbc1;
      }

      .cls-172 {
      fill: #d29242;
      }

      .cls-173 {
      fill: #ad723d;
      }

      .cls-174 {
      fill: #9d6636;
      }

      .cls-175 {
      fill: #ac5411;
      }

      .cls-176 {
      fill: #46200c;
      }

      .cls-177 {
      fill: #402515;
      }

      .cls-178 {
      fill: #d8a15d;
      }

      .cls-179 {
      fill: #7f6147;
      }

      .cls-180 {
      fill: #dbb588;
      }

      .cls-181 {
      fill: #904510;
      }

      .cls-182 {
      fill: #aa5813;
      }

      .cls-183 {
      fill: #401e0f;
      }

      .cls-184 {
      fill: #8d3808;
      }

      .cls-185 {
      fill: #ba7525;
      }

      .cls-186 {
      fill: #592403;
      }

      .cls-187 {
      fill: #d9bc98;
      }

      .cls-188 {
      fill: #96440b;
      }

      .cls-189 {
      fill: #8a8a8a;
      }

      .cls-190 {
      fill: #dabd97;
      }

      .cls-191 {
      fill: #3a1300;
      }

      .cls-192 {
      fill: #dcd4ca;
      }

      .cls-193 {
      fill: #2f2d34;
      }

      .cls-194 {
      fill: #73360c;
      }

      .cls-195 {
      fill: #e1b66e;
      }

      .cls-196 {
      fill: #5e3a28;
      }

      .cls-197 {
      fill: #4e250d;
      }

      .cls-198 {
      fill: #b51f1e;
      }

      .cls-199 {
      fill: #3a1200;
      }

      .cls-200 {
      fill: #644127;
      }

      .cls-201 {
      fill: #a34c0f;
      }

      .cls-202 {
      fill: #502207;
      }

      .cls-203 {
      fill: #2d0e00;
      }

      .cls-204 {
      fill: #5983b2;
      }

      .cls-205 {
      fill: #51240a;
      }

      .cls-206 {
      fill: #65412e;
      }

      .cls-207 {
      fill: #381a0e;
      }

      .cls-208 {
      fill: #452010;
      }

      .cls-209 {
      fill: #523123;
      }

      .cls-210 {
      fill: #5f3e2c;
      }

      .cls-211 {
      fill: #421700;
      }

      .cls-212 {
      fill: #ab5412;
      }

      .cls-213 {
      fill: #725342;
      }

      .cls-214 {
      fill: #d1d4d7;
      }

      .cls-215 {
      fill: #f2e2ce;
      }

      .cls-216 {
      fill: #cc8631;
      }

      .cls-217 {
      fill: #652601;
      }

      .cls-218 {
      fill: #d5a263;
      }

      .cls-219 {
      fill: #d3984e;
      }

      .cls-220 {
      fill: #4b99c6;
      }

      .cls-221 {
      fill: #561f00;
      }

      .cls-222 {
      fill: #461800;
      }

      .cls-223 {
      fill: #7e3907;
      }

      .cls-224 {
      fill: #9cbfd3;
      }

      .cls-225 {
      fill: #dba96b;
      }

      .cls-226 {
      fill: #e5caa6;
      }

      .cls-227 {
      fill: #401803;
      }

      .cls-228 {
      fill: #a75212;
      }

      .cls-229 {
      fill: #bd7027;
      }

      .cls-230 {
      fill: #3e281c;
      }

      .cls-231 {
      fill: #7b3307;
      }

      .cls-232 {
      fill: #5f2503;
      }

      .cls-233 {
      fill: #250800;
      }

      .cls-234 {
      fill: #f0dcc3;
      }

      .cls-235 {
      fill: #9c3f09;
      }

      .cls-236 {
      fill: #341609;
      }

      .cls-237 {
      fill: #c48231;
      }

      .cls-238 {
      fill: #f1e3d2;
      }

      .cls-239 {
      fill: #d6a05d;
      }

      .cls-240 {
      fill: #e0b885;
      }

      .cls-241 {
      fill: #6a2a04;
      }

      .cls-242 {
      fill: #753408;
      }

      .cls-243 {
      fill: #cf9550;
      }

      .cls-244 {
      fill: #6c2f09;
      }

      .cls-245 {
      fill: #a7221f;
      }

      .cls-246 {
      fill: #f1dfc9;
      }

      .cls-247 {
      fill: #7b3808;
      }

      .cls-248 {
      fill: #502e1e;
      }

      .cls-249 {
      fill: #280b00;
      }

      .cls-250 {
      fill: #dbaa69;
      }

      .cls-251 {
      fill: #e9d5bc;
      }

      .cls-252 {
      fill: #e4be81;
      }

      .cls-253 {
      fill: #d49240;
      }

      .cls-254 {
      fill: #3f2418;
      }

      .cls-255 {
      fill: #45200c;
      }

      .cls-256 {
      fill: #d7dce0;
      }

      .cls-257 {
      fill: #e5c295;
      }

      .cls-258 {
      fill: #d0964c;
      }

      .cls-259 {
      fill: #b18153;
      }

      .cls-260 {
      fill: #43210f;
      }

      .cls-261 {
      fill: #933c0d;
      }

      .cls-262 {
      fill: #d49c57;
      }

      .cls-263 {
      fill: #782f07;
      }

      .cls-264 {
      fill: #8f3a0c;
      }

      .cls-265 {
      fill: #dfb784;
      }

      .cls-266 {
      fill: #d19143;
      }

      .cls-267 {
      fill: #aa713e;
      }

      .cls-268 {
      fill: #a0420b;
      }

      .cls-269 {
      fill: #d8a86c;
      }

      .cls-270 {
      fill: #e6c8a2;
      }

      .cls-271 {
      fill: #4b200a;
      }

      .cls-272 {
      fill: #e3bf92;
      }

      .cls-273 {
      fill: #953d0d;
      }

      .cls-274 {
      fill: #c17f31;
      }

      .cls-275 {
      fill: #602401;
      }

      .cls-276 {
      fill: #2b2928;
      }

      .cls-277 {
      fill: #5b5b5b;
      }

      .cls-278 {
      fill: #537b93;
      }

      .cls-279 {
      fill: #51260c;
      }

      .cls-280 {
      fill: #3b1a0b;
      }
    </style>
  </defs>
  <g id="_Слой_1-2" data-name="Слой 1">
    <path class="cls-6"
          d="m84.93,0h17.99c8.57.73,17.02,1.81,25.11,5.12,29.05,11.88,48.25,32.69,57.38,62.73,1.51,4.95,1.96,10.07,1.93,15.24.25,2.28-.53,4.63.52,6.84v5c-1.05,1.64-.28,3.46-.52,5.18,0,1.54,0,3.07,0,4.61-.39,19.34-8.42,35.72-20.41,50.21-12.26,14.82-27.89,24.86-46.45,30.33-5.79,1.71-11.73,1.62-17.56,2.6h-17.99c-12.47-.55-24.21-3.77-35.18-9.7-24.75-13.38-40.81-33.67-47.98-60.89-1.06-4.02-1.29-8.2-1.26-12.36-.26-1.98.57-4.06-.52-5.98v-8.99c1.04-2.2.27-4.54.52-6.8-.11-16.13,6.11-30.22,15.01-43.06C28.86,20.83,46.96,7.95,69.77,1.92c5-1.32,10.16-.91,15.16-1.92Z"/>
    <path class="cls-227"
          d="m111.51,152.01c-2.6,3.54-6.66,4.08-10.49,5.08-.49-3.92-3.7-2.48-5.92-2.98-3.19-.79-6.54.75-9.68-.7-.42-.19-.77-.1-.65.17.12.29.58-.23.92.09.88.81.97,1.61.1,2.48-3.77,3.29-5.76-.28-8.28-2.08-1.3-.93-3.04-3.01-3.63.73-.33,2.09-1.5,1.24-2.28.27-1.01-1.26-1.85-2.66-2.76-3.99.43-3.22,3.09-2.48,5.01-2.6,4.65-.28,9.31.08,13.96-.04,3.71.43,3.01-2.16,2.95-4.33,1.06-1.39,2.42-1.34,3.88-.82,1.46.43,1.37,3.41,4.25,1.92,2.25-1.16,1.42,2.29,2.71,3.13,2.29-.85,2.95-3.51,5.01-4.64,1.67.22,3.42,1.04,4.87-.6,1.84-.55,3.64-.68,5.25.55.19,1.18.82.71,1.47.31,2.36-.5,4.49-.34,6,1.82,1.51-.09,2.65,1.15,1.5,1.88-2.12,1.35-2.57,5.32-6.36,4.18-1.7-.51-2.65.91-3.63,2.01-3.01,3.05-2.94-.93-4.22-1.85Z"/>
    <path class="cls-119"
          d="m116.88,144.92c-1.78-1.86-4.04-.72-6.08-.99-.62.24-.97.04-1.06-.63.49-1.12,1.51-1.4,2.57-1.6,3.31-.39,6.67.22,9.95-.52,2.65-.36,4.98-1.51,7.19-2.94,4.46-2.88,7.96-6.72,11.09-10.94,1.17-1.57,2.16-3.28,3.8-4.46,2.24-.96,3.33-4.66,6.74-2.87.62,3.45-2.37,4.79-4.05,6.9-.43,2.03-.44,4.22-2.15,5.77-.84.8-1.68,1.6-2.52,2.4-2.41.43-3.44,2.83-5.46,3.81-3.47,3.7-8.6,4.37-12.69,6.94-2.36-1.04-4.84-.97-7.33-.87h0Z"/>
    <path class="cls-76"
          d="m92.83,43.86c4.13-4.21,10.52-4.7,16.22-1.25,1.47,1.64,2.97,3.24,4.99,4.22.26.74-.07,1.29-.57,1.79-1.27,1.19-3.32,1.24-4.27,2.9-.22.39-.47.76-.74,1.11-.48.53-1.07.82-1.8.78-1.39-1.53-3.96-.47-5.2-2.35-.11-1,.33-1.8.87-2.57.38-.69,1.45-1.51.79-2.1-1.07-.95-1.64.31-2.17,1.1-.74,1.62-.91,3.31-.72,5.06.18,1.4.16,2.75-.9,3.86-1.64,1.35-3.15,1.69-4.14-.68-.48-1.16-1.51-.98-2.4-1.21-.71-.23-1.17-.7-1.33-1.44-.02-.74.29-1.33.78-1.86,1.82-2.06,4.35-4.02.97-6.83-.13-.18-.26-.36-.38-.53Z"/>
    <path class="cls-255"
          d="m32.09,99.92c-.26-.28-.31-.59-.16-.93-1-2.8-.8-4.84,2.94-4.64l1.06-.57c-.07,2.9,1.33,4.54,4.14,5.31,1.49.41,3.25.58,4.17,2.2.17.73-.03,1.4-.36,2.05-.24.41-.54.78-.89,1.1-4.58,2.29-4.14,6.01-2.85,9.97,1.35,3.65,2.26,7.47,4.36,10.81.67,1.69,2.19,3.07,1.97,5.11-.17.46-.5.76-.99.87-.74-.08-1.31-.44-1.76-1.02-3.6-2.95-6.06-6.58-6.72-11.28-.34-.34-.68-.68-1.02-1.02-1.15-1.46-.12-3.79-1.98-4.98-.28-.17-.33-.39-.14-.66-.76-3-.26-6.19-1.43-9.11.06-1.08,1.94-2.36-.34-3.21Z"/>
    <path class="cls-116"
          d="m151.26,92.78c2.31.23,3.12,1.84,2.96,3.79-.15,1.84-1.94,1.35-3.15,1.58-.26-.28-.7-.34-.78-.04-.23.85.25,1.4,1.03,1.7l.34-.09.19.29c.59,1.14,1.06,2.33,1.55,3.52-2.49,3.8-3.99,4.09-10.29,1.98-1.32-1.03-1.68-2.51-1.9-4.05,1.23-2.88,2.33-5.77.1-8.7.57-2.42,2.12-3.88,4.46-4.56.49-.04.98.01,1.45.15,2.11.78,1.16,4.33,4.03,4.43Z"/>
    <path class="cls-141"
          d="m39.71,84.78c-1.29-2.66-1.99-4.79,1.28-7.08,1.32-.93-.6-5.04,2.91-5.94,1.12,4.68,1.65,9.72,7.06,11.85,1.19,2.65.29,5.43.33,8.13.03,2.05-1.62,3.44-3.9,3.6-4.47-1.74-5.84-5.71-6-9.79-.11-2.71-1.76.64-1.68-.77Z"/>
    <path class="cls-40"
          d="m39.71,84.78c.76.23,1.74-2.47,2.45.54.86,3.66,1.88,7.61,5.8,9.6.23,2.43,1.64,4.5,2.12,6.86-2.01,1.93-4.23,2.84-6.92,1.44.26-.44.52-.88.78-1.33.22-2.73-2.94-2.53-3.83-4.43-.74-1.57-2.53-2.57-2.77-4.51,1.3-2.68-1.32-2.95-2.52-4.1-.06-3.4,2.76-3.32,4.9-4.08Z"/>
    <path class="cls-35"
          d="m145.92,68.81c-1,.18-1.24,1.94-2.65,1.25-2.82-.62-.77,2.38-2.12,2.85-.47.26-1.21.3-1.32-.09-1.01-3.5-3.84-5.64-6.02-8.27-.18-.43-.26-.88-.25-1.35,1.62-2.33,3.74-4.33,4.72-7.09.23-.36.51-.67.81-.96,1.02-.81,1.61-1.73.83-3.04-.42-.79-.81-1.59-.99-2.47-.19-.96-.21-1.92-.06-2.89.15-.75.45-1.42,1.03-1.94.68-.4,1.38-.43,2.08-.08,2.44,5.73,3.33,11.82,1.94,17.78-.69,2.95.92,2.78,2.29,3.53.16.96.33,1.91-.31,2.77Z"/>
    <path class="cls-83"
          d="m91.9,52.89l1.03,1.07c.33.35.45.76.38,1.24-.38,1.32-1,2.56-1.38,3.89-2.66,4.49-3.1,4.53-6.43.55-.91-1.5-.44-4.05-3.18-4.18-.43-.2-.76-.5-1-.91-.88-2.82.52-5.64-.05-8.46.08-1.09,1.14-1.54,1.56-2.41,3.39-2.68,6.66,1.04,10.01.18,0,0,.12.14.12.14.21,1.95-1.6,1.9-2.6,2.65-.92,1.14-4.17,1.06-1.93,3.81.56.36.88.86.89,1.51.24.18-1,1.35.49.72.76-.32,1.45-.4,2.1.19Z"/>
    <path class="cls-232"
          d="m60.91,150.83c-1.06-2.55-.94-5.75-4.42-6.91-1.04-.35.28-1.29.5-1.96,5.33-.15,10.71.96,15.96-.72,1.51-.28,1.21,2.86,3.21,1.69,1.62-1.02,3.16-.63,4.68.23,1.24,1.2,3.37,2.07,1.6,4.37-6.02,1.06-12.14,1.87-18.18,1.14-2.51-.3-2.39,1.26-3.36,2.17Z"/>
    <path class="cls-241"
          d="m133.91,63.94c3.76,1.88,6.22,4.76,7.02,8.96.42-.28.79-.24,1.1.18.36,2.03,1.2,3.58,3.44,4.1,1.24.29,2.65.66,2.5,2.47.77,1.36.32,2.5-.64,3.54-.39.29-.83.52-1.3.67-4.95,1.41-7.08-1.7-8.79-5.5-.39-1.62,2.05-4.08-1.44-4.77-.68.07-1.33-.02-1.93-.36-.51-.53-.65-1.17-.58-1.88.13-.66.42-1.27.68-1.88.71-1.78-1.54-3.25-.54-5.05.16-.16.31-.33.47-.49Z"/>
    <path class="cls-30"
          d="m65.31,35.83c2.74-.6,4.03,1.5,5.63,3.01,1.01,1.82,2.1,3.58,2.64,5.65.23.87.73,2.27,2.27,1.25l-.11.05c.7-.29,1.42-.36,2.14-.11,1.17,1.56.45,2.61-.93,3.47-2.96.2-.74,2.22-1.14,3.32.15.67.22,1.34.2,2.03-.18,1.59-.61,3.05-2.57,3.05-1.91,0-2.39-1.53-2.79-3-.4-1.45-.76-2.9-1.73-4.1-.24-.4-.33-.83-.3-1.3.96-1.44,1.94-2.88,1.08-4.75-1.23-4.63-5.26-4.39-8.77-5.12-1.87-.39-4.58.77-5.02-2.52.4-.37.85-.63,1.36-.81,2.68-.29,5.34-1.6,8.04-.13Z"/>
    <path class="cls-57"
          d="m50.96,83.94c-5.99-1.26-8.3-5.25-7.06-12.18.79-1.66,3.96.36,3.94-2.55.27-.42.65-.59,1.14-.54,1.64.9,1.78,2.23,1.08,3.8-1,2.25.83,2.42,2.18,2.95,1.85,1.23.71,2.86.61,4.36-.72,1.34.88,3.76-1.9,4.16Z"/>
    <path class="cls-202"
          d="m44.9,66.99c-.23-2.38-3.75-3.75-2.07-6.72-.2-.42-.24-.86-.11-1.31,3.36-1.74,2.47-5.46,3.8-8.16,1.98-2.36,2.72-5.4,4.38-7.94.68-.44,1.39-.48,2.13-.15.58.56.85,1.27.97,2.04.09.76.04,1.52-.13,2.27-.77,2.03-1.81,3.96-2.11,6.15-.49,1.54-1.23,3.18-1.1,4.7.4,4.63-2.07,7.2-5.76,9.12Z"/>
    <path class="cls-128"
          d="m60.91,150.83v-3.91c7.63,2.53,14.8-1.12,21.99-.01.84-.13,1.67-.27,2.5-.44,1.44-.74,2.87-1.22,4.19.24.74.96,1.3,1.94.43,3.12-5.56.02-11.12.01-16.68.08-1.57.02-3.33-.47-4.51,1.17-2.54-3.31-5.31.68-7.93-.25Z"/>
    <path class="cls-176"
          d="m142.88,104.9c3.35-.56,7.55,3.18,10-1.97.45-.76,1.41-.32,1.96-.84q1.6,2.51-.71,5.89c-.32.29-.84.36-.92.89.22-.06.49-.12.81-.17,3.3,2.12,1.24,3.21-.82,4.31-1.11.72-2.29,1.09-3.6.62-2.81-1.04-3.5-4.52-6.36-5.5-1.14-.53-2.24-1.1-2.6-2.44.41-1.23,1.13-1.58,2.25-.8Z"/>
    <path class="cls-233"
          d="m112.91,47.97c.33-.31.66-.62.99-.93-.53-.4-.57-.84-.11-1.32,2.42-5.32,4.58-10.86,10.92-12.86,2.22,1.14,4.68.82,7.04,1.2.46.15.86.41,1.22.73.31.81-.07,1.35-.71,1.78-3.24,1.52-7.45-.33-10.2,2.91-1.04,1.36-2.23,2.59-3.17,4.03-.96,1.37-1.87,2.75-1.64,4.56.15,1.56-.27,2.82-1.82,3.5-1.07.29-2.04.2-2.86-.64-.57-1.07-.33-2.04.35-2.97Z"/>
    <path class="cls-82"
          d="m44.9,66.99c.04-.33-.02-.87.15-.95,5.59-2.74,3.37-8.95,5.83-13.06.85.54,1.05,1.44,1.29,2.32.23,1.88,1.86,2.84,2.83,4.23.34.64.23,1.23-.18,1.79-.39.48-.82.92-1.18,1.42-.65,1.08-.55,2.36-.9,3.51-.14.4-.34.77-.6,1.1-.95.74-1.57,2.08-3.12,1.7-.39.05-.78.1-1.16.16-1.11-.57-2.57-.66-2.95-2.22Z"/>
    <path class="cls-2"
          d="m53.01,42.96c-.68,0-1.35.02-2.03.03-.14-.13-.27-.25-.41-.37-2.3-.09-2.02,2.32-3.2,3.32-1.44,1.21-2.35,3.92-4.94,1.62-.32-1.01-.07-1.89.58-2.69,1.93-4.92,5.83-7.78,10.39-9.96,1.86-.54,3.49-.68,3.46,2.02-.3,0-.6.03-.9.06-.49,1.19-.98,2.39-1.31,3.64-.04.42-.14.82-.27,1.22-.29.58-.74.97-1.39,1.11Z"/>
    <path class="cls-59"
          d="m37.96,92.91c1.93,2.46,3.8,4.96,6.31,6.91.87.67,2.16,1.77-.33,2.08-3.45-1.46-6.89-2.92-10.4-4.41-.3-2.01,3.08-1.58,2.38-3.71-.03-.32.06-.6.27-.84.58-.55,1.17-.65,1.77-.03Z"/>
    <path class="cls-3"
          d="m85.79,156.15c.28-1.52-.84-2.21-1.79-3.26h11.93c.58.59.53,1.22.16,1.89-1.46,1.22-3.02.5-4.55.24-.49.59-1.27,1.13-1.4,1.79-.28,1.42-.15,3.23-2.18,3-1.95-.22-2.34-1.91-2.16-3.67Z"/>
    <path class="cls-60"
          d="m148.91,112.92c1.43.03,2.86.07,4.29.1-.03.34-.17.64-.41.89-.75.67-.72,1.33.01,1.99.71,1.9.29,3.33-1.73,4.07-3.04-.22-3.85,3.18-6.32,3.89-1.63-2.24-1.04-4.25.65-6.13,2.35-.65,1.38-3.4,2.89-4.59.21-.07.41-.14.62-.22Z"/>
    <path class="cls-227"
          d="m74.05,142.03c-5.69,1.53-11.39,2.83-17.06-.07-.12-.37-.25-.73-.37-1.1.31-.35.68-.6,1.12-.76.9-.24,1.81-.21,2.72-.06.44.07.88.18,1.31.3,2.43.59,4.83.48,7.21-.26.46-.14.92-.23,1.39-.3,1.97-.15,3.9-.52,5.83-.94,1.63-.08,3.24-.12,4.15,1.62.11.54.04,1.06-.23,1.55-1.18.8-2.63.13-3.86.69-.83.1-1.58-.06-2.2-.67Z"/>
    <path class="cls-12"
          d="m145.87,82.94c.34,0,.68,0,1.02,0,.59-.07,1.19-.33,1.76.07,2.87,2.73,1.75,6.51,2.6,9.78-3.64,1.19-2.93-2.55-4.37-3.85-1.39-1.27-2.28-2.73-1.81-4.71.19-.47.46-.9.8-1.28Z"/>
    <path class="cls-67"
          d="m56.87,36.93c-.63-1.57-1.91-2.02-3.46-2.02,4.11-1.57,8.25-3.56,11.89.93-2.84.18-5.5,1.66-8.44,1.1Z"/>
    <path class="cls-254"
          d="m55.18,139.9c-3.65-.08-6.7-1.65-9.47-3.87-.27-.88,2.42.06.96-1.57-.89-.99-1.76-2.02-.83-3.46.14-.11.28-.22.42-.32,3.7.67,5.18,4.41,8.24,5.97.83.96,1.46,1.97.68,3.26Z"/>
    <path class="cls-144"
          d="m95.93,154.88c0-.66,0-1.33,0-1.99.96.14,1.99.57,2.87.38,5-1.13,3.41,1.44,2.22,3.82-.44.59-.88,1.18-1.32,1.77-2.36,1.29-2.39-1.04-3.25-2.09-.21-.39-.37-.8-.5-1.23-.01-.22-.02-.44-.03-.66Z"/>
    <path class="cls-219"
          d="m55.18,139.9c.18-1.19-.63-1.91-1.31-2.68-1.56-2.27-4.85-3.51-4.25-7.08,3.28-1.15,4.29,2.17,6.45,3.25.32.35.57.74.79,1.16.75,2.07,2.63,4.13.12,6.26,0,0-.36.03-.36.03-.48-.32-.96-.64-1.43-.96Z"/>
    <path class="cls-109"
          d="m45.84,131c.17,2.36,2.59,3.23,3.47,5.19-1.29.93-2.4-.79-3.61-.16-1.47.02-2.29-.82-2.76-2.11-1.09-1.4.19-2.4.59-3.56.15-.15.31-.31.46-.46.62.36,1.23.73,1.85,1.09Z"/>
    <path class="cls-10"
          d="m42.98,58.97c-.05.43-.1.87-.15,1.3-1.9-3.3-3.03-6.69-1.16-10.41.46-.35.95-.38,1.45-.09,1.3,1.53,1.03,3.42,1.19,5.21.03,1.48.48,3.11-1.33,3.99Z"/>
    <path class="cls-29"
          d="m131.9,34.92c-2.46-.46-5.63,1.55-7.18-2.07,2.53-2.46,5.44-.6,8.17-.73.2.23.28.47.22.71-.05.24-.11.37-.16.35-.99.17-1,.96-1.05,1.74Z"/>
    <path class="cls-123"
          d="m37,118.9c1.97,3.9,3.5,8.08,7,11.01,0,0-.01,0-.01,0-.39.53-.81.56-1.26.08-4.07-2.58-6.25-6.14-5.73-11.09Z"/>
    <path class="cls-209"
          d="m147.98,42.75c3.28,2.59,4.75,8.06,3.1,11.54-.46-.24-.8-.59-1.03-1.06-.96-3.06-2.95-5.81-2.81-9.21.09-.52.34-.94.74-1.27Z"/>
    <path class="cls-55"
          d="m147.98,42.75c-.06.39-.12.78-.17,1.17-3.76,1.33-3.98-2.28-5.59-3.97-.34-.63-.58-1.29-.68-2,0-.49.18-.89.58-1.18,3.58.39,4.73,3.18,5.86,5.98Z"/>
    <path class="cls-194"
          d="m149.13,62.2c.17.29.1.52-.19.69-1.03,1.19-1.7,3.01-3.86,2.27-1.58-3.06-1.29-6.13-.09-9.21,2.76.15,1.68,3.23,3.27,4.27.46.58.69,1.27.87,1.98Z"/>
    <path class="cls-260"
          d="m32.98,101.92c.5,3.42,1.49,6.8.89,10.32-1.46-3.63-2.33-7.36-1.81-11.31.98-.29,1.19.13.92.99Z"/>
    <path class="cls-47"
          d="m149.13,62.2c-.42-.42-.84-.83-1.26-1.25-.97-1.05-.79-2.16-.18-3.3.87-1.13.98-2.56,1.49-3.84.37-.64.84-1.13,1.68-.9.08.46.15.92.23,1.38.17,2.84-.12,5.56-1.95,7.91Z"/>
    <path class="cls-131"
          d="m75.86,45.74c-1.35,1.88-2.18.57-2.68-.6-.87-2.05-1.51-4.2-2.24-6.3,3.27,1.14,1.72,5.71,4.92,6.9Z"/>
    <path class="cls-183"
          d="m37.96,92.91c-.59.01-1.18.02-1.77.03,1.67-2.08-2.13-2.31-1.37-4.08,2.77.01,5.43.12,3.15,4.05Z"/>
    <path class="cls-43" d="m34,112.9c4.01.33,2.27,2.94,1.98,4.98-2.58-.89-2.57-2.82-1.98-4.98Z"/>
    <path class="cls-75"
          d="m32.98,101.92c-.31-.33-.62-.66-.92-.99.01-.33.03-.67.04-1.01,1.86-.02,3.5.37,4.62,2.03-1.48,1.62-2.58.32-3.74-.03Z"/>
    <path class="cls-236"
          d="m77.96,46.01c-.74-.07-1.48-.14-2.21-.22,2.05-1.74,5.11-.09,7.08-2.12-.3.76-.59,1.52-.89,2.28-.41.78-.93,1.4-1.91,1.37-.9-.11-1.46-.75-2.06-1.33Z"/>
    <path class="cls-71" d="m144.88,132.64c.9-1.86.41-4.23,2.15-5.77,1.26,2.66,0,4.38-2.15,5.77Z"/>
    <path class="cls-144"
          d="m91.53,155.02c1.44-.94,2.92-.35,4.39-.14,0,0,0,0,0,0,.57,1.28-.07,2.14-1.02,2.89-2.85,1.2-1.97-2.18-3.38-2.76Z"/>
    <path class="cls-197" d="m34.87,94.35c-2.57.54-3.21,2.3-2.94,4.64-.73-2.63-2.59-5.97,2.94-4.64Z"/>
    <path class="cls-151"
          d="m145.9,64.95c1.01-.69,2.03-1.37,3.04-2.06-.29,2.34-1.77,4.07-3.03,5.92-.01-.98-.02-1.97-.03-2.95-.34-.21-.45-.41-.33-.62.12-.2.23-.3.35-.3Z"/>
    <path class="cls-71" d="m136.9,138.85c1.38-1.9,2.59-4.04,5.46-3.81-1.66,1.5-3.02,3.43-5.46,3.81Z"/>
    <path class="cls-55"
          d="m141.74,34.99c.13.59.25,1.19.38,1.78,0,0-.26.28-.26.28-.57.93.16,2.24-.86,3.05-1.47.32-1.95-.78-2.52-1.76-.16-.43-.22-.88-.2-1.34.23-1.29,1.14-1.87,2.28-2.22.44-.21.83-.13,1.18.2Z"/>
    <path class="cls-207"
          d="m113.79,45.71c.04.44.08.88.11,1.32-2.55-.45-4.02-2.09-4.86-4.42,2,.39,2.52,3.05,4.74,3.1Z"/>
    <path class="cls-58"
          d="m111.51,152.01c1.4.62,1.91,3.3,4.22,1.85-.43,1.52-1.69,2.26-2.99,1.94-2.08-.51-.84-2.49-1.23-3.79Z"/>
    <path class="cls-89"
          d="m151.32,99.82c-1.6-.47-2.94-1.1-1.58-3.05.2-.29.82-.3,1.25-.43.03.61.05,1.21.08,1.82.09.55.17,1.11.25,1.66Z"/>
    <path class="cls-170"
          d="m42.87,49.97c-.4-.04-.8-.07-1.2-.11.13-1.75-1.7-4.03,1.35-4.99-.01,1.04-.03,2.07-.04,3.11.59.7.5,1.36-.12,1.99Z"/>
    <path class="cls-16"
          d="m154.02,108.71c-.67,1.17-1.74,1.33-2.91,1.04-.18-.04-.44-.55-.36-.7.74-1.51,2.16-1.02,3.39-1.07-.04.24-.08.48-.11.72Z"/>
    <path class="cls-92"
          d="m142.02,73.09c-.37-.06-.73-.12-1.1-.18.35-1.3-1.25-4.21,2.34-2.84-.63.92.22,2.44-1.24,3.02Z"/>
    <path class="cls-149"
          d="m94.91,157.78c.34-.96.68-1.93,1.02-2.89.36.33.72.66,1.08.99.55,1.27.69,2.53-.06,3.78-.68-.63-1.36-1.25-2.03-1.88Z"/>
    <path class="cls-29"
          d="m141.74,34.99h-.44s-.44,0-.44,0c-2.11.89-3.78.83-4.18-1.95.42-.51.9-.57,1.43-.18,1.04,1,3.05.34,3.63,2.13Z"/>
    <path class="cls-120"
          d="m148.66,83.01c-.59.07-1.22,1.02-1.76-.07.36-1.09.71-2.19,1.07-3.28,1.82.79,1.95,1.93.69,3.35Z"/>
    <path class="cls-44"
          d="m96.95,159.65c.02-1.26.04-2.52.06-3.78,1.22.71.65,3.02,2.69,2.99-.56,1.51-1.6,1.32-2.75.79Z"/>
    <path class="cls-74" d="m152.8,115.9c-.96-.13-2.07-.16-2.13-1.43,0-.15,1.38-.37,2.12-.55,0,.66,0,1.32.01,1.99Z"/>
    <path class="cls-254"
          d="m42.73,129.99c.42-.03.84-.05,1.26-.08-.34,1.34-.69,2.67-1.03,4.01-2-1.2-.58-2.6-.22-3.93Z"/>
    <path class="cls-248"
          d="m138.11,32.86c-.39.08-.79.17-1.18.25-1.38,1.08-2.72,1.02-4.03-.13-.01-.29-.02-.57-.01-.86,1.78-.04,3.66-.77,5.22.74Z"/>
    <path class="cls-22"
          d="m154.84,102.09c-.65.28-1.3.56-1.96.84-1.16-.68-.97-1.84-1.03-2.91,1.21.38,1.36,2.3,2.98,2.08Z"/>
    <path class="cls-96"
          d="m106.94,143.96c-.78,1.24-1.43,2.59-2.37,3.7-1.04,1.22-2.32,2.94-3.99,2.33-1.57-.57-.21-2.7-.96-4.12-4.09,5.25-3.89.43-4.74-1.99.34-3.05,3.03-3.09,5.07-3.98,2.41-.37,4.73-.24,6.78,1.28.41.36.66.81.75,1.35.02.55-.16,1.03-.54,1.43Z"/>
    <path class="cls-165"
          d="m99.92,140.86c-1.68,1.01-3.37,2.01-5.05,3.02-1.36.13-2.87-.39-3.96.9-.44.66-1.1.92-1.86.97-.94-.16-1.88-.3-2.84-.19-1.86-.35-3.56-1.05-5.12-2.13-.63-.37-1.08-.86-1.13-1.63-.01-.3-.02-.61-.03-.91.63-.59,1.47-1.04,2.22-.76,5.36,2,10.52,1.63,15.6-.93.57-.29,1.28.02,1.89.3.51.37.6.83.28,1.37Z"/>
    <path class="cls-261"
          d="m88.96,144.92c.65-.05,1.3-.09,1.95-.14,3.51,2.35,1.53,3.74-.89,5.05-.39-.97-.78-1.95-1.17-2.92-.48-.69-.53-1.36.1-1.99Z"/>
    <path class="cls-73"
          d="m106.94,143.96c0-.36-.01-.72-.02-1.08,1.43-1.03,2.31-.27,3.03.95.28.05.57.09.85.11.16,1.27-.3,2.37-1.55,2.56-1.79.28-1.1-2.08-2.32-2.54Z"/>
    <path class="cls-4"
          d="m116.88,144.92c-.1,1.03-.36,1.97-1.67,1.76-.31-.05-.83-.7-.76-.89.44-1.18,1.56-.75,2.44-.86,0,0,0,0,0,0Z"/>
    <path class="cls-69"
          d="m146.62,117.83c-2.76,1.35-1.08,4.07-1.86,6.04-3.66,4.11-6.43,8.99-10.86,12.44-1.26.98-2.15,2.51-4,2.55-.59-2.18,1.46-3.15,2.17-4.74,1.15-1.77,2.7-3.15,4.34-4.45,4.92-6.32,3.82-15.07-2.54-19.64-1.21-.87-2.44-1.72-3.62-2.63-2.24-2.12-4.37-4.34-7.77-4.63-.97-.08-2.4-.67-1.29-2.3,2.22-1.27,4.57-.89,6.91-.58,1.92.52,3.78,1.21,5.58,2.06.84.4,1.68.84,2.53,1.22,1.64.78,3.54,1.09,4.74,2.64.9.39,1.8.78,2.7,1.17,1.86,1.62,3.09,3.74,4.56,5.67-2.11,1.24.2,3.84-1.59,5.17Z"/>
    <path class="cls-180"
          d="m123.11,142c-3.47,2.03-7.16.79-10.77.7-1.81-.38-3.75-.23-5.41-1.27-1.48-.64-3.09-.96-4.54-1.69-2.68-2.02-1.67-3.96.13-5.89.39-.24.81-.33,1.26-.27,1.49.87,1.87,2.8,3.41,3.63,1.04.7,2.18,1.21,3.33,1.67.41.14.8.31,1.2.47,2.44,1.1,5.02,1.43,7.67,1.36.91.02,1.82.1,2.69.4.43.19.77.49,1.02.89Z"/>
    <path class="cls-258"
          d="m132.89,134.9c-1,1.32-2,2.64-3,3.96-1.98,1.66-3.93,3.37-6.78,3.14-.22.02-.42-.03-.61-.14-.09-1.93,1.27-2.79,2.66-3.63,1.18-.5,2.34-1.02,3.27-1.95.99-.85,1.92-1.82,3.32-1.97.46.04.83.23,1.13.58Z"/>
    <path class="cls-42"
          d="m106.9,141.02c2.02-.11,3.72.8,5.43,1.68-.88.19-1.85.2-2.38,1.13-1.01-.32-2.02-.63-3.03-.95-.01-.32-.02-.63,0-.95-.36-.2-.49-.39-.37-.6.12-.21.23-.31.35-.31Z"/>
    <path class="cls-31"
          d="m89.92,45.95c1.01-.65,2.02-1.3,3.03-1.95,1.11.25,3.12-.75,3.15,1.01.04,2.63.15,5.69-3.23,6.89-.63-.51-1.64-.14-2.15-.92-.13-.74.31-1.54-.19-2.27-.21-.92-.42-1.84-.61-2.76Z"/>
    <path class="cls-24"
          d="m106.98,53c.32-.33.64-.66.95-.99,1.64-1.61,3.49-1.23,5.35-.54.56.1.87.44.94,1.01-3.65,4.43-8.39,5.81-13.93,4.94-.43-.23-.69-.58-.77-1.06,1.35-3.63,4.06-4.25,7.45-3.34Z"/>
    <path class="cls-203"
          d="m106.98,53c-2.18,1.42-5.48.12-7.07,2.95-.34.35-.67.34-.99-.03.65-.98.61-1.97,0-2.96.88-.84,1.06-2.73,2.99-2.01,2.17-.49,4.26-.8,5.07,2.05Z"/>
    <path class="cls-15"
          d="m98.92,55.92c.33,0,.66.02.99.03,0,.33-.01.67-.02,1-.09.71-.48,1.24-1.02,1.68-1.12.69-2.1,1.73-3.59,1.58-1.89-1.26-1.55-3.54-2.39-5.28,0-.32.02-.64.04-.97,1.47-.39,3.53-2.75,3.42,1.38-.07,2.62,1.6.75,2.56.57Z"/>
    <path class="cls-203"
          d="m99.92,46.97c.21-2.01,1.63-2.69,3.34-2.64.86.03,2.1.47,2.2,1.53.16,1.7-1.33,2.36-2.54,3.11-1.38-.1-2.21-1.01-3-1.99Z"/>
    <path class="cls-211"
          d="m99.92,46.97c1.44,0,2.44.67,3,1.99-.34.66-.67,1.32-1.01,1.98-1,.67-1.99,1.34-2.99,2.01-.02-2.06-.18-4.13,1-5.99Z"/>
    <path class="cls-15"
          d="m90.93,50.95c.79.03,1.53.17,1.94.95-.32.33-.64.66-.96.99-1.69-.07-2.41,1.34-3.47,2.35-.9-1.31-.62-2.38.42-3.36.5-.73.99-1.49,2.07-.94Z"/>
    <path class="cls-105" d="m112.91,47.97c0,1,0,1.99,0,2.99-1.67.75-3.33.76-5,0,.88-2.31,3.41-1.86,5-2.99Z"/>
    <path class="cls-203"
          d="m107.92,50.96c1.67,0,3.33,0,5,0,1,0,2-.01,3-.02.05.22.11.43.16.65-.57.94-1.3,1.13-2.21.46-1.97-.01-3.95-.03-5.92-.04,0-.35-.01-.7-.02-1.05Z"/>
    <path class="cls-216"
          d="m43.16,103.22c2.35-.6,4.89-.61,6.9-2.26,1.26-1.71,2.88-2.93,4.95-3.51,1.61.12,3.24.18,4.8.66,1.85.97,1.32,1.97-.05,2.81-2.21,1.35-4.26,2.98-6.68,3.97-1.72.7-3.18,1.59-3.78,3.47-2.78,3.74-5.99,7.35-4.06,12.62-.04,1.86.3,3.82-1.42,5.21-2.89-3.22-3.29-7.47-4.7-11.31-.67-4.38-1.54-8.84,3.98-10.98.08-.22.1-.44.06-.67Z"/>
    <path class="cls-266"
          d="m43.83,126.18c.05-2.09.1-4.19.15-6.28,1.56-.45,1.92.89,2.6,1.74.83,1.6,1.61,3.23,2.84,4.59.45.53.83,1.11,1.07,1.76.15.72.08,1.37-.51,1.89.34,2.96,3.11,4.62,3.9,7.34-3.41-1.16-5.08-4.36-7.61-6.55-.33-1.76-2.42-2.56-2.43-4.49Z"/>
    <path class="cls-197" d="m43.11,103.89c-3.15,3-4.26,6.74-3.98,10.98-2.7-6.28-1.52-9.55,3.98-10.98Z"/>
    <path class="cls-163"
          d="m135.83,103.98c-.7-.3-1.39-.61-2.09-.91-.41-2,1.48-2.03,2.44-2.86,1.64-1.04,3.54-1.8,4.19-3.9-.01-.64-.09-1.28-.1-1.92.17-.87.3-1.79,1.58-1.46,3.77,2.64,2.92,5.29.01,7.95-1.55,1.93-3.61,2.87-6.04,3.1Z"/>
    <path class="cls-184"
          d="m141.85,92.94c-.78.44-.94,1.18-.96,1.98-3.57.8-4.01.28-3.14-3.72.7-1.14,1.59-2.14,2.44-3.18.38-.4.82-.69,1.33-.89,1.75-.17,3.82-1.11,4.32,1.77-1.66,1.02-3.04,2.32-3.99,4.03Z"/>
    <path class="cls-33"
          d="m135.83,103.98c1.65-1.73,3.77-2.57,6.04-3.1.69,1.25,1.19,2.55,1.02,4.02-.77.04-1.5.15-1.93.91-1.89-.11-3.65-.57-5.12-1.83Z"/>
    <path class="cls-241"
          d="m145.84,88.91c-1.37-1.64-3.27-.72-4.92-1.02-.28-.39-.34-.82-.19-1.27,1.34-1.6,2.8-2.98,5.13-2.73.34,1.68.69,3.36,1.03,5.04-.35,0-.7-.01-1.05-.02Z"/>
    <path class="cls-186"
          d="m54.89,97.86c-1.11,1.81-2.72,2.85-4.83,3.1-3.39-1.08-3.48-3.31-2.1-6.04,1.87-1.62,3.23-3.14,1.89-6.06-.56-1.22.68-3.26,1.11-4.93,1.99-.92-1-3.08,1-4,3.34-1.57,4.64-.95,4.25,2.38-.41,3.41-1.21,6.77-.84,10.24-.03,1.78,1.21,3.67-.47,5.3Z"/>
    <path class="cls-95"
          d="m139.72,50.06c.4.63.79,1.26,1.19,1.89.94,1.77-.11,2.83-1.35,3.84-.22.04-.43.1-.64.18-.39.32-.8.35-1.22.05-.67-.9-.58-2.21-2.01-3.3-.39,2.39.11,4.91-1.79,6.57-1.79.74-3.36,0-4.92-.74-.84-.55-1.47-1.27-1.77-2.24,1.04-3.12-.94-3.76-3.35-4.05-.37-.37-.61-.8-.71-1.31.42-4.84,4.33-4.69,7.63-5.17,2.51-.37,4.87.47,7.02,1.8.94.59,1.53,1.46,1.91,2.48Z"/>
    <path class="cls-244"
          d="m140.88,39.98c.08-1.06-.22-2.24.98-2.93.34.65.67,1.29,1.01,1.94.71,3.23,1.1,6.54,2.49,9.6.24.64.31,1.3.25,1.97-.41,1.33.1,2.47.75,3.59.14.68.04,1.3-.48,1.8-1.57,3-1.6,6,.02,8.99,0,.3-.01.61-.02.91-1.34-.41-1.92,2.21-3.33.92-.49-.45-.79-1.66-.54-2.26,2.22-5.56,1.11-11.06-.04-16.59-.2-.95-.07-1.97-.09-2.96-1.44-1.44-2.59-2.93-1-4.98Z"/>
    <path class="cls-39"
          d="m139.97,44.93c-.09.68-.17,1.35-.26,2.03-1.77.68-3.14-.45-4.6-1.04-3.15-1.27-6.28-1.74-9.4.05-1.95.78-2.99,2.95-5.17,3.37-.52-.08-.88-.37-1.1-.85.74-7.9,15.76-10.98,20.33-4.3.07.25.14.49.2.74Z"/>
    <path class="cls-18"
          d="m129.12,58c1.63.29,3.25.58,4.88.88,1.27-1.05,2.52-2.13,4-2.88.31-.01.62-.02.93-.02-.6,2.97-1.36,5.82-4.99,6.45-2.15.73-3.25-.85-4.53-2.06-.42-.54-.69-1.14-.7-1.84.14-.18.27-.35.41-.53Z"/>
    <path class="cls-229"
          d="m124.93,44.98c5.45-3.21,10.12-.61,14.79,1.98,0,1.03,0,2.07,0,3.11-.57-.38-1.14-.77-1.71-1.15-2.69-2.99-6.09-3.47-9.78-2.6-1.13.27-2.17.67-3.25-.03-.44-.42-.45-.85-.05-1.3Z"/>
    <path class="cls-50"
          d="m130.03,59.72c1.3.9,2.6,1.81,3.9,2.71,0,.51-.02,1.01-.02,1.52,0,0-.04.01-.04.01-.64.6-1.14,1.34-1.88,1.84-.97.62-1.97,1.03-3.11.45-.47-.47-.66-1.06-.73-1.7.11-1.33-1.37-1.93-1.48-3.16.63-1.55,2.06-1.49,3.37-1.67Z"/>
    <path class="cls-199"
          d="m140.88,39.98c.33,1.66.67,3.32,1,4.98-.64-.01-1.27-.02-1.91-.03,0,0-.14.07-.14.07-.8-1.64-2.25-2.88-2.91-4.61-.3-.9-.66-1.8.05-2.68.71-.34,1.37-.32,1.95.26l1.95,2.02Z"/>
    <path class="cls-151" d="m139.57,55.79c.45-1.28.9-2.56,1.35-3.84,1.84,2.08.72,3.12-1.35,3.84Z"/>
    <path class="cls-222"
          d="m79.94,46.96c.67-.33,1.33-.66,2-.99,2.27,3-.53,6-.01,9,.06,1.5-1.16,2.83-.6,4.4-.07.46-.3.81-.68,1.07-2.43.79-3.31-.62-3.78-2.65-.33-1.41-.24-3.05-1.9-3.81,0-.67,0-1.35,0-2.02-.59-.82.06-1.15.59-1.53,2.18-.25,2.07-3.42,4.4-3.47Z"/>
    <path class="cls-34"
          d="m80.92,59.88c0-.31,0-.62,0-.93.13-1.43.17-2.92,1.93-3.44,2.26.03,2.21,2.16,3.12,3.42,2.44,3.71,4.15,3.46,5.11-.94,1.93.11,1.57,1.51,1.55,2.73-.25.96-.73,1.81-1.45,2.5-.86.6-1.91.95-2.82.6-3.23-1.24-4.93.28-6.03,3.07-.37.28-.78.4-1.24.35-1.11-1.57-3.66-1.72-4-4.06-.33-2.98,2.42-2.37,3.84-3.31Z"/>
    <path class="cls-221"
          d="m89.92,45.95c2.59.24,1.59,1.69,1.01,3-.4,1.54-1.95,1.4-2.98,2.03-1.4.6-2.25.32-1.95-1.38.38-2.17,1.7-3.41,3.92-3.65Z"/>
    <path class="cls-134"
          d="m91.93,60.95c-.04-1.06.19-2.19-.85-2.96.38-1.16.77-2.31,1.82-3.07,3.35.24.97,3.95,3.01,4.98.1.22.19.44.29.66-.16.48-.46.83-.91,1.06-1.24.38-2.41.39-3.36-.67Z"/>
    <path class="cls-191"
          d="m82.92,55.94c-.67,1-1.33,2.01-2,3.01-3.42-2.27,1.04-2.56,1-3.99.34,0,.68,0,1.03,0,.29.22.38.44.28.66-.1.21-.21.31-.31.31Z"/>
    <path class="cls-275" d="m82.92,55.94c.01-.32.02-.65.03-.97,3.53-.6,2.66,2.16,3.02,3.97-1.02-1-2.04-2-3.05-3Z"/>
    <path class="cls-159"
          d="m87.95,50.99c.99-.68,1.98-1.35,2.98-2.03,1.11.66.09,1.33,0,1.99-.69.31-1.38.63-2.07.94-.3-.3-.61-.6-.91-.9Z"/>
    <path class="cls-264"
          d="m81,142.85c1.73.48,3.53.81,4.97,2,.65,1.02.67,2.03-.08,3.02-1.09-.03-2.26.18-3-.96-.57-1.41-1.66-2.31-2.95-3.03-.2-.91-.03-1.44,1.06-1.03Z"/>
    <path class="cls-273"
          d="m74.05,142.03c.62-.02,1.25-.05,1.87-.07.61.64.6,1.29.03,1.95-.11.82-.12,1.86-1.4,1.02-1.17-.76-1.46-1.74-.5-2.9Z"/>
    <path class="cls-113"
          d="m75.95,143.9c0-.65-.02-1.3-.03-1.95,1.34-.05,2.69-.11,4.04-.16.35.35.69.7,1.04,1.05-.35.34-.7.69-1.05,1.03-1.34-.88-2.67-.94-4,.02Z"/>
    <path class="cls-110"
          d="m145.86,83.89c-1.65,1.03-3.3,2.05-4.95,3.08-2.83-1.11-7.24-.06-7.13-5.2.2-1.81.15-3.54-.82-5.2-.84-1.43-.92-2.81.93-3.62.67,0,1.33,0,2,0,2.77.22,2.91.56,2.01,5,2.09,2.56,3.46,6.29,7.97,5-.01.31-.02.63-.02.94Z"/>
    <path class="cls-212"
          d="m133.89,72.95c-1.93,2.95,3.14,5.01,1,7.99-1.16,1.77-2.51,3.27-4.85,2.12-1.52-.75-3.27-6.49-2.48-7.74.62-.98,1.49-1.78,2.26-2.64.99-1.04,1.65-2.42,3.08-3,.78.08,1.45.25,1.02,1.29,0,.66-.02,1.32-.02,1.98Z"/>
    <path class="cls-110"
          d="m133.92,70.96c-.34-.33-.67-.67-1.01-1-1.93.37-3.09-.92-4.34-2.03-.27-.74-.21-1.43.36-2.01l2.97-.99c1.59,1.32,3.18,2.64,3.02,5.01-.34.34-.67.68-1.01,1.02Z"/>
    <path class="cls-156"
          d="m134.93,69.94c-1.01-1.67-2.02-3.34-3.02-5.01.43-.79,1.16-.96,1.97-.97-1.34,2.29,3.81,3.44,1.06,5.98Z"/>
    <path class="cls-156"
          d="m137.91,77.94c-.47-1.75,1.23-4.37-2.01-5,1.01-1.57,2.23-2.97,2.89.04.34,1.57.73,3.55-.87,4.96Z"/>
    <path class="cls-46"
          d="m80.92,59.88c-1.05,1.32-3.7,1.46-2.98,4.07-2.04.17-3.48-2.61-5.78-1.17-3.03.93-6.09,1.66-9.3,1.15-2.28-.88-4.97-.18-7.05-1.84-.22-3.36,2.92-4.52,4.42-6.76.57-.47,1.17-.78,1.92-.44,1.88,3.89,3.87-.17,5.87.43-.26-1.82-2.14-1.79-2.5-3.1-.18-1.06.27-1.84,1.07-2.48.7-.34,1.38-.36,2,.19,3.94-.57,2.36,2.89,3.21,4.52.49.93.21,2.5,1.85,2.27,1.56-.22,1.15-1.68,1.3-2.74,3.04-1.37,2.92.91,2.93,2.68.01,2.14.5,3.58,3.04,3.22Z"/>
    <path class="cls-77"
          d="m53.94,42.11c.01-.36.02-.73.03-1.09,3.07-3.67,10.63-3.28,14.72.73.96.94,1.49,2.14,2.26,3.2,1.22,2.25.73,3.69-1.96,4.06-2.54-.58-3.67-3.28-6.08-4.06-.45-.15-.88-.32-1.31-.48-2.46-1.1-6.04,1.42-7.66-2.37Z"/>
    <path class="cls-67"
          d="m70.95,44.96c-2.72-1.78-4.77-4.4-8.22-5.31-3.3-.88-6.13-.97-8.76,1.38-.93-2.14.54-3.08,2-4.03,2.98,2.07,6.6.53,9.84,1.84,3.02,1.23,5.11,2.66,5.14,6.13Z"/>
    <path class="cls-143"
          d="m62.95,43.98c3.02.47,4.41,2.9,6.04,5.05-.1.32-.23.62-.4.91-.62,0-1.23.01-1.85.02-2.22-.07-2.59-2.09-3.61-3.43-.34-.83-.72-1.65-.19-2.54Z"/>
    <path class="cls-249"
          d="m79.94,46.96c-1.98.71-1,4.37-4.03,4.03-.59-.68-.51-1.35.05-2.01,1.29-.57,1.95-1.56,2-2.96.82-.02,1.54.15,1.97.94Z"/>
    <path class="cls-56" d="m75.96,48.98c-.02.67-.04,1.34-.05,2.01-.32.33-.64.65-.96.98-1.58-1.65-.71-2.46,1.02-2.98Z"/>
    <path class="cls-66"
          d="m54.11,93.21c-.36-3.6-.18-7.15.85-10.65.87-2.93-.37-3.62-3-2.62-.47-1.33,1.02-2.66,0-4-1.26-3.8,1.84-5.31,3.89-7.37,1.41-.5,2.5-.04,3.34,1.13.57,1.77-.08,3.44-.4,5.14-.37,1.17-.54,2.37-.52,3.6.06,2.58-.6,5.03-1.37,7.45-1,2.14-.23,4.65-1.43,6.75-.34.46-.8.65-1.36.56Z"/>
    <path class="cls-65"
          d="m55.96,68.95c-.58,2.76-3.88,3.96-4,6.99-3.93-.19-4.62-1.02-2.81-3.74.86-1.29.26-2.13-.15-3.16.97-.73,1.39-2.21,2.94-2.13,2.07,2.08,4-2.27,6.07-.14.56,1.9-1.46,1.35-2.05,2.16Z"/>
    <path class="cls-14"
          d="m63.85,46.25c.97,1.23,1.93,2.47,2.89,3.7-.34.6-.67,1.2-1.01,1.8-.17.16-.33.32-.5.47-.45-.11-.83-.34-1.17-.65-2.57-2.55-5.29-4.55-9.06-2.29-.59.56-1.04,1.22-1.38,1.96-.51,1.12-.55,2.37-.89,3.54-.26.61-.61,1.11-1.37,1.09-.17-.97-.33-1.93-.5-2.9-.5-2.39.58-4.25,2.02-6,3.93-3.83,6.82-4.03,10.96-.73Z"/>
    <path class="cls-247"
          d="m42.98,58.97c.59-1,.6-2.01.02-3.02,2.01-1.6.78-5.23,3.85-6.17.29.23.4.49.34.76-.06.28-.13.42-.21.42.33,2.51-.56,4.84-1.04,7.23-.47,2.32-1.81,1.14-2.96.77Z"/>
    <path class="cls-161"
          d="m63.85,46.25c-3.81-2.14-7.4-.9-10.96.73.08-.67.16-1.33.23-2,3.09-2.07,6.43-1.76,9.81-1.01,0,0,.01,0,.01,0,.3.76.6,1.51.9,2.27Z"/>
    <path class="cls-143"
          d="m62.94,43.97c-3.34-.35-6.57.44-9.81,1.01-.04-.67-.08-1.34-.12-2.02.31-.28.62-.57.93-.85,2.68,2.19,6.38-.61,9,1.85Z"/>
    <path class="cls-2"
          d="m46.97,50.97c0-.34-.01-.67-.02-1.01-.19-3.2.86-5.7,3.99-7.01,0,0,.03.03.04.03.06,3.36-1.03,6.15-4.01,7.98Z"/>
    <path class="cls-88"
          d="m85.89,147.87c.03-1.01.05-2.01.08-3.02.99.02,1.99.05,2.98.07-.03.66-.07,1.33-.1,1.99-1.48-1.19-2.02.51-2.96.96Z"/>
    <path class="cls-22"
          d="m147.85,112.9c-2.09-1.48-3.84-3.21-4.2-5.92,3.18.72,3.87,3.63,5.25,5.94,0,0-.02.01-.02.01-.36.38-.7.39-1.04-.03Z"/>
    <path class="cls-101"
          d="m137.88,39.98c.74,1.64,2.04,3.06,1.95,5.02-6.32-6.11-18.19-2.98-19.8,3.86-.3.37-.69.58-1.16.65-1.22-.13-2.06-.92-2.92-1.67-.39-2.09,1.12-3.32,2.17-4.75,6.1-4.17,12.37-7.23,19.77-3.11Z"/>
    <path class="cls-78"
          d="m137.88,39.98c-7.13-2.41-13.34,1.05-19.77,3.1.94-1.36,1.89-2.71,2.83-4.07,3.3-2.07,7.04-2.3,10.78-2.53,1.96-.33,3.9-.6,5.14,1.51.34.66.68,1.33,1.02,1.99Z"/>
    <path class="cls-38"
          d="m132.9,32.99c1.34.04,2.69.08,4.03.12.8,1.7,2.29,1.95,3.93,1.89-.66.66-1.31,1.32-1.97,1.98-2.27.14-4.49.14-6.01-1.99-.33-.02-.65-.04-.98-.07-.39-.49-.77-.99-1.16-1.48.72-.15,1.44-.3,2.16-.45Z"/>
    <path class="cls-29"
          d="m131.89,36.96c-3.81-.19-7.21,1.84-10.95,2.05,2.74-4.3,7.19-2.42,10.95-3.03.34.22.46.44.35.66-.11.22-.23.33-.34.33Z"/>
    <path class="cls-121"
          d="m131.89,36.96c0-.33,0-.66,0-.98.33-.33.66-.66.99-.99,2,.66,4.01,1.32,6.01,1.99.01.33.03.65.04.98-.69,0-1.38.02-2.07.03-1.66-.34-3.31-.68-4.97-1.02Z"/>
    <path class="cls-105"
          d="m115.94,47.84c1,.37,2,.74,3,1.11.04,2.21-.93,2.95-3.01,2.07,0,0-.02-.08-.02-.08.69-1.03.51-2.06.03-3.1Z"/>
    <path class="cls-263"
          d="m57.95,66.95c-1.31,0-2.21.27-3.15,1.58-1.34,1.88-2.16,1.37-2.86-1.61,0,0-.01.02-.01.02,1.27-1.49-.14-3.52,1-5.04.34-.33.69-.65,1.03-.98.51.62,1.55.21,1.96,1.02,2.39,0,4.75.15,7.02.99-.02.65-.24,1.25-.52,1.82-.69,2.36-2.44,2.57-4.48,2.2Z"/>
    <path class="cls-122"
          d="m55.93,61.94c-.82-.02-1.56-.2-1.96-1.02.32-.36.65-.73.97-1.09-.55-1.76.37-2.82,1.73-3.69,1.36-.56,2.7-1.29,4.22-.5-.83,2.74-3.79,3.81-4.95,6.29Z"/>
    <path class="cls-195"
          d="m56.96,57.06c-.67.92-1.35,1.85-2.02,2.77-2.41-.22-3.65-1.49-3.57-3.96.25-.34.5-.69.75-1.03,1.32-.15,2.55.44,3.85.43.45.1.85.3,1.19.6.21.45.14.85-.21,1.19Z"/>
    <path class="cls-65" d="m52.94,61.9c-.22,1.7.71,3.63-1,5.04.27-1.69-.56-3.6,1-5.04Z"/>
    <path class="cls-223"
          d="m50.95,42.96c-1.33,2.34-2.66,4.67-3.99,7.01-1.9,1.62-.32,5.52-3.96,5.99-.04-1.99-.08-3.99-.13-5.98.04-.66.08-1.33.11-1.99,4.37-1.25,4.33-6.67,8.1-8.56,1.32,1.24-.46,2.36-.14,3.53Z"/>
    <path class="cls-176"
          d="m147.85,112.9c.35,0,.69.02,1.04.03-1.63,1.23.86,4.37-2.27,4.9-.05-1.76-1.31-3.82,1.23-4.93Z"/>
    <path class="cls-160"
          d="m99.92,139.89c-.82.11-1.86-.07-2.42.37-5.74,4.58-11.67,1.86-17.57.62-1.16-1.44-2.87-.74-4.31-1.11-.06-.48.07-.89.4-1.24.28-.19.63-.25.88-.42.55-.38,2.99.83,1.32-1.5.05-1.01.37-1.81,1.5-2.02,2.85.84,4.21,4.07,7.31,4.51,1.86.67,3.73.77,5.6.02,2.15-.58,3.77-2.44,6.11-2.56,1.03.3,1.47,1.1,1.71,2.06-.03.49-.2.91-.53,1.28Z"/>
    <path class="cls-133"
          d="m76.11,139.01c-.12.28-.28.53-.49.76-1.79,1.12-3.71,1.26-5.73.83-2.39.22-4.28-1.14-6.26-2.1-.94-.46-1.36-1.4-.17-2.25,3.32-1.25,6.47.7,9.73.48.52.08,1.02.24,1.5.46.73.41,1.22.99,1.4,1.82Z"/>
    <path class="cls-225"
          d="m62.91,136.96c2.33,1.21,4.66,2.43,6.99,3.64-.32.08-.63.19-.93.35-2.68.7-5.36.65-8.05.04l.09-.23c-1.55-1.31-2.77-2.77-2.19-5.01.84-.72,1.79-.77,2.8-.47.73.33,1.18.88,1.29,1.69Z"/>
    <path class="cls-239"
          d="m58.97,135.85c.68,1.63,1.36,3.27,2.04,4.9-1.34.02-2.69.05-4.03.07,1.36-2.27-.84-3.92-1.02-5.92.35-.34.77-.57,1.25-.68,1.01.08,1.98.21,1.77,1.62Z"/>
    <path class="cls-200" d="m60.92,140.99c2.68-.01,5.37-.02,8.05-.04-2.68,1.59-5.36,1.36-8.05.04Z"/>
    <path class="cls-187"
          d="m57,134.81c-.35.03-.69.07-1.04.1-.04-.27-.07-.54-.07-.82-7.59-8.57-4.54-20.69,6.69-26.59,4.34.42,7.94,2.09,10.19,6.04.55,2.39,1.61,4.64,1.85,7.11-.04.48-.19.94-.44,1.35-4.76,1.27-6.56-2.52-8.97-5.26-1-1.14-.69-2.86-1.71-3.96-.71.75-.75,1.99-1.86,2.37-1.97-1.45-2.87.03-3.81,1.4-2.77,4.03-2.37,8.33-1.16,12.73.5,1.81,1.89,3.6.31,5.54Z"/>
    <path class="cls-136"
          d="m63.06,107.68c-2.84,2.93-6.47,5.11-8.41,8.9-3.14,6.1-1.31,11.83,1.24,17.51-2.66-.43-3.66-3.21-5.92-4.21-.02-.64-.03-1.28-.05-1.92-3.23-8.92,3.54-20.82,12.75-22.4.77.59.83,1.31.39,2.13Z"/>
    <path class="cls-114"
          d="m144.88,48.97c-2.87-2.88-2.82-6.35-2.02-9.97,1.65,1.64,1.88,4.71,4.94,4.93.72,3.09,2.8,5.73,3.05,8.98-.34.35-.69.7-1.03,1.05-.38.31-.79.37-1.24.18-1.37-1.58-2.11-3.49-2.87-5.39-.03-.08-.31-.13-.45-.09-.14.04-.25.2-.37.31Z"/>
    <path class="cls-102"
          d="m144.88,48.97c.16-.76.08-1.85.55-2.2.51-.38.98.46,1.21,1.11.72,2.04,1.5,4.06,2.25,6.09.31,1.32.18,2.64-.03,3.96-1.15.74-.94,1.93-.99,3.02-3.2-.65-1.54-3.24-1.99-4.99,0-.66,0-1.33,0-1.99-.95-.8-1-1.89-1-3,0-.66,0-1.33,0-1.99Z"/>
    <path class="cls-194" d="m148.86,57.92c-.91-1.33-.87-2.65.03-3.96.31,0,.62,0,.94,0-.15,1.36.6,2.94-.96,3.96Z"/>
    <path class="cls-280"
          d="m99.92,139.89c0-.35,0-.7.01-1.05.99-.62,1.96-.74,2.85.19,1.37.66,2.75,1.33,4.12,1.99,0,.3,0,.61.02.91-2.29-.61-4.56-1.39-7-1.07,0-.32,0-.65,0-.97Z"/>
    <path class="cls-268"
          d="m130.89,72.94c-3.17,4.02-3.31,4.1-.85,8.47,1.69,3,3.2-.51,4.85-.48-.16,2.35.11,4.32,3.27,4.02,1.44-.14,2.59.31,2.75,2.02-.01.31-.01.62.01.93-.01.35-.03.7-.04,1.04-.65.68-2.05.61-1.98,2-1.22,2.27-1.63,4.13,1.99,3.98.33.34.66.67.99,1.01-2.56,1.73-5.11,2-7.67-.11-1.22,1.15.55,2.46-.2,3.62-1.29,1.99-3.02,2.49-5.17,1.5-2.64-.02-5.28-.03-7.91-.05-.25-.43-.25-.84.03-1.26,2.56-.97,5.67-1.3,5.77-5.07.95-1.54-.63-2.75-.56-4.17.19-1.18.35-2.35.07-3.55.1-1.44.07-2.86-.49-4.23-1-3.11-2.81-5.97-2.83-9.37.1-.46.27-.89.5-1.31,1.13-1.26,2.45-2.21,4.2-2.38,1.69.54,2.84,1.6,3.26,3.37Z"/>
    <path class="cls-152"
          d="m132.89,134.9c-.34,0-.68-.01-1.02-.02-1.28-1.65-.2-3.16.35-4.66,2.86-7.83.42-14.22-5.23-19.81-1.33-1.32-3.59-2.07-3.22-4.6,1.8-1.37,3.51-.53,5.23.22.48.25.92.55,1.32.91,4.63,3.23,7.74,7.49,8.62,13.15.6,3.82.39,7.53-2.07,10.79-1.67,1-3,2.34-3.98,4.02Z"/>
    <path class="cls-258"
          d="m136.88,130.87c3-9.54-.18-17.27-6.99-23.94.33-.45.68-.44,1.03-.03,9.59,5.45,12.73,14.44,7.75,22.35-.41.66-1.18,1.09-1.79,1.62Z"/>
    <path class="cls-253"
          d="m130.91,106.9c-.34,0-.69.02-1.03.03-.33,0-.65-.01-.98-.02-1.77-1.46-3.7-2.03-5.91-1.06-1.61.42-3.31.28-4.91.81-.48.1-.96.14-1.44.13-2.17-.56-4.13-1.4-5.01-3.71.81-2.13,2.89-2.32,4.61-3.06,1.66-.25,2.51-1.95,4.11-2.33,1.04.54,1.31,1.27.59,2.26-.06.31-.07.63-.02.94,3.76,1.29,8.02,1.74,9.99,6Z"/>
    <path class="cls-32"
          d="m128.84,100.95c2.1.37,3.48-1.08,5.06-2.02,1.18.4,2.25.96,3,2-1.05.72-2.1,1.43-3.16,2.15-1.63-.71-3.27-1.42-4.9-2.12Z"/>
    <path class="cls-238"
          d="m86.64,140.05c-3.65.16-4.96-2.86-6.87-5.07-2.23-1.47-2.29-3.45-1.37-5.68,2.59-1.33,2.93,1.14,3.76,2.4,4.03,6.12,9.39,6.85,14.81,1.85,3.15-2.9,5.91-6.22,9.26-8.9,1.53-1.22,3.1-2.51,5.25-2.49,4.05,1.73,2.83,5.14,2.26,8.03-.62,3.19-2.73,5.55-5.68,7.05-3.1.94-2.38-2.72-4.13-3.43-.37.07-.74.14-1.12.21-.98,1.38-2.14,2.48-3.91,2.72-1.78,1.32-3.31,3.07-5.73,3.27-2.18.56-4.36.52-6.54.02Z"/>
    <path class="cls-215"
          d="m106.91,136.9c4.26-2.71,6.68-6.34,6.01-11.63-.17-1.34-.59-2.21-2.01-2.36.4-3.79,3.55-4.34,6.31-5.35,3.62,1.12,4.5,4.14,4.73,7.34.5,6.86-5.32,13.96-12.05,14.97-1.03-.61-2.06-1.22-3.09-1.83-.49-.42-.46-.8.09-1.14Z"/>
    <path class="cls-240"
          d="m125.9,138.89c-1.13.99-2.27,1.98-3.4,2.97-.88,0-1.76,0-2.64,0-.42-2.94,2.21-4.21,3.49-6.19,2.98-4.62,4.7-9.38,3.25-14.93-.64-2.45-1.98-3.71-4.61-3.23-.47-.06-.89-.26-1.26-.56-.37-.91-.19-1.84-.11-2.76.3-1.86-.5-3.69-.2-5.56.31-.76.87-1.17,1.68-1.25,5.99,3.15,10.15,7.69,11.06,14.67.06,1.52.12,3.04-.14,4.56-.37,3.27-1.62,6.2-3.46,8.89-1.04,1.31-2.26,2.44-3.64,3.38Z"/>
    <path class="cls-125"
          d="m120.92,117.17c1.69.19,2.82-3.05,4.77-.9,2.36,2.6,2.99,5.92,2.8,9.23-.39,6.69-4.47,11.58-8.63,16.37-3.15.05-6.32.16-9.01-1.95,11.09-3.68,13.92-9.89,9.74-21.37-.17-.47.03-.97.33-1.38Z"/>
    <path class="cls-171"
          d="m120.92,117.17c6.58,7.61,1.96,17.62-3.39,21.63-2.15,1.61-4.45.83-6.68,1.12-.31.02-.62,0-.93-.05,4.92-2.32,8.56-5.69,10.24-11.13,1.39-4.51.46-7.99-3.26-10.8.65-.96,1.71-1.18,2.72-1.47.43-.06.84,0,1.22.22-.06.18-.04.34.09.48Z"/>
    <path class="cls-139"
          d="m98.92,136.75c.62-1.89,2.55-1.9,3.91-2.72.35,1.67-2.45,3.31-.05,5-.95-.06-1.9-.13-2.85-.19-.34-.69-.68-1.39-1.02-2.08Z"/>
    <path class="cls-171"
          d="m106.91,136.9c-.03.38-.06.76-.08,1.14-2.24-.53-2.61-2.33-2.88-4.21.64-1.05,1.37-2.22,1.93-.03.28,1.07-.14,2.33,1.04,3.1Z"/>
    <path class="cls-167"
          d="m128.9,135.9c1-3,2-5.99,3-8.99.81-1.67.81-3.33,0-5-.56-6.64-5.51-10.15-9.99-13.99-1.6-.58-3.46.7-4.95-.68-.39-.43-.4-.87-.05-1.33.33-.01.66-.02.99-.03,1.45-.87,3.05-.28,4.57-.44.55-.04,1.02.13,1.42.5,4.45,4.04,8.87,7.82,10.44,14.28,1.35,5.54-1.21,9.86-2.44,14.66-.99.67-1.98,1.35-2.97,2.02-.31-.22-.41-.44-.31-.67.1-.23.2-.34.3-.34Z"/>
    <path class="cls-265" d="m128.9,135.9c0,.34,0,.67,0,1.01-.58,1.29-1.56,1.99-3,1.99.65-1.35,1.65-2.34,2.99-3Z"/>
    <path class="cls-98"
          d="m98.9,57.88c.33-.31.67-.62,1-.93,2.2.03,4.15-3.25,6.66-.38.66.76,1.97.22,2.27-.98.72-2.89,2.99-2.62,5.14-2.66,1.95-1.18,3.65.8,5.54.42,1.3.53,2.91.8,2.44,2.84-1.37,1.19-3.02,1.58-4.76,1.75-1.21.02-2.27-.39-3.25-1.06-1.86-1.05-2.36.7-3.25,1.61-1.33,1.48-.12,2.6.54,3.8-.03.49-.23.88-.62,1.18-1.12.62-2.31.58-3.51.36-1.77-.54-3.57-.7-5.4-.51-2.19.16-2.45,3.14-4.69,3.22-.48-.02-.93-.16-1.34-.4-1.54-1.81-1.48-3.54.26-5.18h0c.75-1.26,1.82-2.21,2.97-3.08Z"/>
    <path class="cls-1"
          d="m118.9,53.95c-2.03,1.52-3.15-1.33-4.93-1.01-.03-.29-.07-.59-.11-.88.69-.35,1.38-.69,2.08-1.04,1.42-.08,2.44-.74,3.01-2.07.36-.03.72-.06,1.09-.09.26.07.51.15.76.23.95,0,1.6.51,2.14,1.21.33.53.49,1.17.99,1.6l.08.03c1.75,1.05,3.1,2.42,3.72,4.42.46.55.93,1.1,1.39,1.65,0,0-.48-.05-.48-.05-.48,1.79-2.03,1.31-3.25,1.56-2.2.26-3.5-.53-3.24-2.93.28-2.62-1.43-2.67-3.25-2.62Z"/>
    <path class="cls-24"
          d="m98.9,57.88c-.57,1.43-1.62,2.4-2.97,3.08,0-.35-.01-.7-.02-1.05.58-1.29,1.61-1.92,2.99-2.03Z"/>
    <path class="cls-262"
          d="m45.96,121.91c-.66-.67-1.32-1.34-1.98-2.01-2.11-5.57,1.39-8.79,4.99-11.98,3.83-3.9,8.08-6.86,13.93-6.29.3.4.39.85.29,1.34-1.12,1.59-3.07,1.77-4.58,2.7-4.69,2.91-8.56,6.53-10.43,11.94-.52,1.52-.81,3.2-2.22,4.28Z"/>
    <path class="cls-172"
          d="m62.92,101.91c-4.45,1.02-9.09,1.6-12.06,5.79-.25.35-1.24.16-1.89.22-.83-1.46-.48-2.64,1.13-3.04,3.73-.93,6.32-4.01,9.93-5.12.1-.03.2-.28.19-.42-.01-.14-.16-.28-.25-.41-.25-.4-.22-.77.07-1.14.36-.25.77-.39,1.21-.43,1.14.11,2.12.55,2.94,1.36.22.39.35.82.36,1.27-.16.96-.62,1.67-1.62,1.92Z"/>
    <path class="cls-52"
          d="m59.99,98.02c-.01.3-.02.61-.03.91-1.73-.16-3.67.66-5.07-1.07-.26-1.55-.52-3.1-.79-4.65.25-.13.5-.24.77-.31.38-.33.79-.38,1.24-.14.65.68.83,1.55,1.05,2.41.17,1.47,1.56,1.66,2.48,2.34.12.17.23.34.34.51Z"/>
    <path class="cls-137"
          d="m45.96,121.91c1.48-10.01,7.3-16.16,16.87-18.98.64.58.68,1.27.35,2.02-8.33,3.73-13.78,9.56-13.97,19.21-.02.94.61,1.97-.29,2.82-1.89-1.16-2.61-3.01-2.96-5.07Z"/>
    <path class="cls-111"
          d="m48.92,126.98c-1.76-11.41,4.82-19.39,14.02-22.07.25.32.25.65.05,1-9.54,4.28-13.74,11.71-13.08,22.04-.33-.32-.67-.65-1-.97Z"/>
    <path class="cls-28"
          d="m136.9,100.92c-1.45,0-2.91.03-3-2-1.35-1.29-2.53-3.09-1.14-4.53,1.41-1.46,2.06.92,3.01,1.36,1.71.78,4.04.2,6.11.19-.24,3.08-2.83,3.82-4.98,4.99Z"/>
    <path class="cls-23"
          d="m138.9,90.94c-.67-.21-1.9-.21-1.38-1.25.67-1.35,2.21-.56,3.36-.76-.37.96-1.04,1.61-1.98,2Z"/>
    <path class="cls-41"
          d="m137.99,56c-.41,2.25-1.67,3.31-4,2.88.13-1.62.33-3.24.37-4.86.03-1.04-2.04-2.42.42-3.01,2.01-.48,3.18.56,3.39,2.57.08.79-.11,1.61-.18,2.42Z"/>
    <path class="cls-250"
          d="m123.92,51.9c-.41-.3-.82-.6-1.24-.9-1.13-2.51.19-3.9,2.27-4.94,4.75-.88,9.75-2.87,13.05,2.85-3.63-2.04-7.32-2.61-11.38-1.08-2.1.79-2.86,2-2.71,4.06Z"/>
    <path class="cls-18"
          d="m127.73,56.34c-1.97-.86-2.45-2.97-3.72-4.42,1.76-.15,3.52-.31,5.66-.5-.71,1.81-1.32,3.36-1.93,4.91Z"/>
    <path class="cls-114" d="m144.89,50.96c1.17.72.97,1.9,1,3-2.11-.41-2.63-1.35-1-3Z"/>
    <path class="cls-153"
          d="m124.95,46.06c-.97,1.55-2.53,2.82-2.27,4.94-.63-.64-1.26-1.27-1.89-1.91,1-1.74,2.35-3.15,4.13-4.11,0,.36.02.72.03,1.08Z"/>
    <path class="cls-78"
          d="m125.88,57.97c.92.46,1.85.79,2.76-.03.47.59.93,1.18,1.4,1.77-1.04.74-2.09,1.48-3.13,2.21-.53.3-.99.23-1.39-.23-.78-1.33-.41-2.55.37-3.73Z"/>
    <path class="cls-235"
          d="m125.92,61.94c.33.01.65,0,.98,0,1.01.33,3.36-.66,1.98,2.02-1.02,1.02-1.55,2.58-3.23,2.85-2.28.34-3.92-.67-5.18-2.48-.47-.85-.64-1.78-.7-2.73.37-2.19-.82-1.87-2.17-1.33-1.09-.28-1.38-1.08-1.37-2.08.12-.47.35-.88.67-1.23,1.66-.33,3.33-.66,4.99-.99-.06,2.94,3.13,3.69,4.02,5.98Z"/>
    <path class="cls-175"
          d="m125.91,65.95c1.03-.61,1.43-2.15,2.97-2,.02.66.03,1.31.05,1.97-.01.68-.02,1.35-.03,2.03.04.85-.26,1.54-1,2-1.38.58-2.26,2.15-4,2.01-.45.3-.88.28-1.28-.1-.95-3.11,1.11-4.54,3.29-5.9Z"/>
    <path class="cls-51"
          d="m61.95,63.95c.33-.34.67-.68,1-1.01,3-.33,5.99-.66,8.99-.99,3.08,1.54,6.2,3,9.01,5,.32,0,.64.01.96.03.88,2.25,1.39,4.53.51,6.91-.51.88-1.24,1.48-2.23,1.76-1.27.25-2.37-.13-3.36-.92-.71-.59-1.24-1.34-1.7-2.13-.44-.73-.85-1.48-1.37-2.16-1.15-1.1-1.65-2.93-3.57-3.17-2.83-.86-5.81.66-8.62-.54-.08-.96-.31-1.93.38-2.78Z"/>
    <path class="cls-134"
          d="m81.96,73.91c.62-2.32-1.7-4.62-.04-6.94.22-4.05,1.27-6.8,6.13-4.18.77.41,1.91.13,2.88.17.43,1.72-1.31,1.8-1.99,2.69-.89.92-.86,2.12-.98,3.27-.08.63-.27,1.22-.6,1.76-.27.33-.6.6-.96.82-1.55.6-1.68,3.18-3.92,2.83-.17-.13-.34-.27-.51-.4Z"/>
    <path class="cls-24"
          d="m87.93,64.95c1-.67,2-1.33,3-2,.03-.82.2-1.57,1-2,1.33,0,2.67,0,4,0-.45,1.65-.5,3.29,0,4.94-1.02,1.52-1.88,3.26-4.14,3.14-.9-1.72-2.35-2.93-3.86-4.08Z"/>
    <path class="cls-217" d="m80.96,66.94c-3.04-1.6-7.31-.98-9.01-5,3.08-2.55,4.56-.33,6,2,1.44.56,3.75.24,3.02,2.99Z"/>
    <path class="cls-169"
          d="m127.9,69.94c.02-.82.2-1.56,1-2,1.88-.41,2.87.94,4.01,2.01-.67.99-1.35,1.99-2.02,2.98-1.34-.65-2.34-1.65-2.99-2.99Z"/>
    <path class="cls-181"
          d="m64.96,51.98c.25-.1.51-.18.78-.23,2.22.57,4.22,1.39,4.16,4.2-.02.92-.62,1.95-1.36.93-1.8-2.48-6.67,6.34-6.58-1.88.38-1.62,1.38-2.63,3.01-3.01Z"/>
    <path class="cls-49"
          d="m64.96,51.98c-1,1-2,2-3.01,3.01-.36.22-.71.44-1.07.67-1.31.47-2.62.94-3.93,1.41,0-.37,0-.74,0-1.1,1.7-6.49,2.05-6.67,7.82-4.14l.18.16Z"/>
    <path class="cls-205"
          d="m70.95,65.95c2.51.18,2.11,3.23,3.99,4.03-.33.41-.71.77-1.14,1.07-3.1,1.89-6.44,3.3-9.83,4.54-2,.74-4.18,1.11-6-.68-.13-1.75.05-3.44.99-4.98.35-.31.75-.5,1.2-.58,3.58-1.18,7.32-1.89,10.79-3.41Z"/>
    <path class="cls-115"
          d="m57.97,74.92c6.15.96,10.64-3.43,16.03-4.93.51,1.53-.59,2.5-1.24,3.63-.28.36-.61.66-.99.92-1.62.77-3.34,1.35-4.9,2.26-1.28.63-2.6,1.13-4.03,1.29-1.92,0-3.83.64-5.75.08-.11-1.19-.33-2.41.88-3.24Z"/>
    <path class="cls-243"
          d="m57.09,78.16c1.69-1.82,3.86-1.21,5.92-1.17.28.38.3.79.1,1.21-1.73,1.64-2.52,3.97-4.09,5.73-.7.77-1.27,1.68-2.22,2.19-.43.11-.79-.01-1.06-.37.45-2.53.9-5.06,1.35-7.6Z"/>
    <path class="cls-217"
          d="m59.94,69.94c-.33,0-.66,0-.99,0-1-.33-1.99-.66-2.99-.99.66-.67,1.33-1.34,1.99-2,.14-2.59,4.11-.07,4-3,0,1.01,0,2.01,0,3.02.52,1.8-.56,2.51-2.01,2.97Z"/>
    <path class="cls-243"
          d="m55.96,92.93c-.36-.01-.72-.02-1.08-.03.69-2.33-.98-4.94.85-7.14,0,0,.36.27.36.27,1.61,2.33,1.64,4.63-.13,6.9Z"/>
    <path class="cls-252"
          d="m64.78,51.82c-.49.04-.99.16-1.47.11-2.08-.19-5.07-2.13-4.5,2.55.05.41-1.2.98-1.85,1.48-.34,0-.68,0-1.02-.01-.79-.74-.88-1.66-.72-2.65,1.08-1.89,2.23-3.8-1.28-4.35,4.04-3.36,8.67-2.13,10.83,2.88Z"/>
    <path class="cls-53"
          d="m55.95,52.94c0,1,0,2,0,3-1.8,1.48-2.86.36-3.81-1.1.01-1.36-.59-2.82.73-3.93,2.13-1,3.58-.96,3.09,2.03Z"/>
    <path class="cls-87"
          d="m55.95,52.94c-.1-2.09-1.66-1.96-3.09-2.03.36-.66.72-1.31,1.08-1.97,1.73-.08,3.46-.16,5.82-.28-1.54,1.73-2.67,3-3.81,4.28Z"/>
    <path class="cls-146"
          d="m76.11,139.01l-1.22-1.07c-.94-4.59-2.6-9-3.48-13.62,5.01-.6,5.22-.39,6.16,5.87.56,2.23.38,4.61,1.33,6.77.97,3.26-1.5,1.85-2.78,2.05Z"/>
    <path class="cls-168"
          d="m78.89,136.96c-1.74-1.59-2.09-3.68-2.11-5.89.03-.21.07-.41.1-.62.14-1.04.12-2.14,1.2-2.77.71.1,1.19.37.82,1.21-.23,2.1.12,4.12.87,6.09-.29.66-.59,1.33-.88,1.99Z"/>
    <path class="cls-63" d="m86.64,140.05c2.18,0,4.36-.01,6.54-.02-2.18,1.26-4.36,1.33-6.54.02Z"/>
    <path class="cls-85"
          d="m70.94,125.07c2.95,1.85,5.1,8.83,3.95,12.87-.32,0-.63,0-.94-.04-1.3-1.02-2.84-.32-4.26-.59-7.43-1.45-11.04-9.28-7.13-15.5,1.84-1.09,3.52.37,5.3.34.43.07.83.22,1.22.42.81.69,1.58,1.41,1.85,2.5Z"/>
    <path class="cls-162"
          d="m64.13,121.84c-3.68,3.93-1.66,11.9,3.4,14.13,2.09.92,4.61.23,6.42,1.93-3.68-.31-7.36-.63-11.04-.94-.34-.29-.68-.58-1.02-.88-4.6-3.77-6.62-10.62-4.69-16,.63-1.77,1.56-3.29,3.59-3.73,1.37-.07,2.25.91,3.28,1.55.58.41,1.04.92,1.22,1.62,0,.96-.39,1.74-1.16,2.32Z"/>
    <path class="cls-45"
          d="m61.91,116.91c-5.75,2.26-3.88,7.14-3.61,11.24.19,2.93,2.06,5.43,3.59,7.93-.97-.08-1.94-.15-2.91-.23-.66-.35-1.32-.69-1.98-1.04-.9-5.07-3.96-9.82-2.04-15.33.73-2.11,1.93-3.75,3.29-5.45,2.14-2.67,2.65-.56,3.49.92.74.59.71,1.25.17,1.96Z"/>
    <path class="cls-21"
          d="m63,105.91c-.02-.33-.03-.67-.05-1-.04-.66-.08-1.32-.12-1.99.03-.34.06-.68.09-1.02.41-.64.81-1.28,1.22-1.91,3.35-.44,6.66,1.16,10,.21.52-.73.23-1.43-.08-2.14-.3-.58-.5-1.18-.35-1.84.87-1.39,2.29-1.35,3.66-1.42.47,0,.93.05,1.4.13.46.1.9.26,1.33.46,1.02.61,1.86,1.44,2.69,2.27,1.59,1.57,2.38,3.56,3,5.64.31,1.22.35,2.45.11,3.69-.77,3.27-2.86,4.98-6.18,5.22-1.32.1-2.53.55-3.68,1.18-.62.39-1.26.74-1.95.99-.75.18-1.44.09-2.01-.47-1.67-4-6.5-3.45-9.01-6.24-.02-.59-.04-1.18-.06-1.77Z"/>
    <path class="cls-136"
          d="m64.88,119.69c-.33-.26-.66-.53-.99-.79-1.23-2.61-1.84-5.22-.02-7.84.97-1.13,1.56-.35,1.5.53-.42,6.19,3.59,8.62,8.53,10.32-1.21,3.06-3.28,1.85-5.26,1.05h-.48s-.45-.16-.45-.16c-1.12-.88-2.31-1.69-2.83-3.11Z"/>
    <path class="cls-48"
          d="m68.64,122.96c1.67-.8,3.89,1.21,5.26-1.05.08-.35.16-.69.24-1.04,1.96.19,2.34,2.05,3.4,3.2.31.68.45,1.4.44,2.14-.5,1.41-.44,2.94-.85,4.37-.11.16-.22.32-.34.48-1.19-2.74-.09-7.71-5.85-6-1.1-.34-1.99-.9-2.29-2.11Z"/>
    <path class="cls-108"
          d="m76.94,123.87c-2.31.29-1.49-2.35-2.8-3-1-2.22-2.24-4.37-2.08-6.95.51,0,1.03,0,1.54,0,1.57.52,1.34,2.16,2.03,3.23.39.78.8,1.56,1.11,2.38.36,1.04.75,2.07.77,3.19-.06.45-.26.83-.58,1.15Z"/>
    <path class="cls-206"
          d="m63.88,111.06c-1.13,2.62.87,5.23.02,7.84-1.41.08-1.54-1.11-1.99-1.99-.06-.65-.12-1.31-.17-1.96.73-1.29-1.1-3.99,2.14-3.89Z"/>
    <path class="cls-148"
          d="m120.95,99.96c-.36-.63-.72-1.26-1.08-1.9-.37-3.82-.41-7.65-1.09-11.47-.42-2.34-.93-4.44-2.37-6.31-.52-1.13-.63-2.3-.37-3.5.26-1.07.96-1.94,1.36-2.95.18-.82.01-1.65.07-2.47.1-.43.3-.81.59-1.15,1.47-1.31,3.05-2.53,3.73.55.29,1.33.95,1.93,2.09,2.29-.44,3.74,2.87,6.33,3.04,9.89-.37,1.33-.35,2.66-.02,4,.67.99.69,1.99.02,3-.92,1.14-.44,1.92.62,2.64.9.61,1.1,1.43.38,2.35.16,5.09-3.1,5.48-6.95,5.03Z"/>
    <path class="cls-235"
          d="m123.86,73.05c-1.16.3-2.9,1.46-2.83-.91.13-4.22-2.11-.79-3.15-1.13-1.62.23-1.78-1.07-1.92-2.07-.22-1.53-1.19-2.09-2.46-2.45-.67-.41-1.02-.98-.99-1.77.82-2.06,2.71-2.01,4.44-2.28.49.05.93.24,1.31.57.93.96-.19,3.98,3.07,2.73,1-.39,1.44,1.39,1.54,2.55.1,1.22-1.07,2.46.05,3.66.33,0,.66,0,.99.01-.01.36-.03.73-.04,1.09Z"/>
    <path class="cls-231" d="m127.9,94.92c.48-1.83-3.69-2.72-1-4.99-.48,1.83,3.71,2.72,1,4.99Z"/>
    <path class="cls-231" d="m126.88,86.93c-1.37-1.34-1.37-2.67.02-4,.93,1.34.94,2.67-.02,4Z"/>
    <path class="cls-182"
          d="m139.68,86.77c-.96.49-1.48.89-2.06,1-.27.05-.65-.43-.98-.66.51-.36.97-.82,1.53-1.03.26-.1.71.3,1.51.69Z"/>
    <path class="cls-258"
          d="m123.88,105.94c-.32,0-.65,0-.97-.02-.33-.21-.44-.43-.33-.65.1-.22.21-.33.32-.33,2.17.17,4.7-.78,6.01,1.98-1.68-.33-3.35-.65-5.03-.98Z"/>
    <path class="cls-226"
          d="m116.85,100.89c-1.62.72-3.23,1.44-4.85,2.17-2.1.18-2.11-1.61-2.7-2.86-.16-.7-.13-1.4.13-2.07.34-.58.85-.99,1.37-1.39,1.11-.91.91-2.1.71-3.3-.29-1.05-1.01-1.9-1.4-2.9-.4-2.09-2.21-3.69-2.07-5.97,1.46-3.95,3.42-1.81,5.33-.46,4.18,4.41,4.77,9.84,4.38,15.55-.23.46-.53.86-.9,1.22Z"/>
    <path class="cls-152"
          d="m109.86,99.84c.72,1.07,1.43,2.14,2.15,3.21,1.63.95,3.27,1.9,4.9,2.86-.02.31-.05.63-.1.94-1.48,1.67-3.47,1.29-5.35,1.33-.79-.03-1.57-.17-2.33-.38-1.94-.91-4.54-.86-5.29-3.54.72-1.6,2.84-1.14,3.71-2.53.62-.81.83-2.13,2.31-1.89Z"/>
    <path class="cls-72"
          d="m116.85,100.89c.05-.31.07-.63.07-.95.93-1.76.37-3.77.94-5.58-.11-3.96.08-7.95-1.36-11.76-.35-.94-.38-1.96.45-2.77,5.13,5.41,4.07,11.81,2.91,18.23-.1,1.91-1.14,2.81-3.02,2.83Z"/>
    <path class="cls-152" d="m122.89,104.93c0,.33.01.66.01.99-1.67-.01-3.34-.02-5.01-.04,1.42-1.59,3.31-.75,5-.95Z"/>
    <path class="cls-63"
          d="m78.91,128.89c-.26-.4-.53-.81-.79-1.21-.19-1.54.94-1.34,1.86-1.41,3.32,1.12,2.64,5.32,5.35,6.91,2.07,1.79,4.39,1.82,6.83.97.58-.31,1.16-.61,1.74-.89,1.45-.5,2.65-1.32,3.5-2.63.57-.69,1.26-1.25,1.96-1.8,2.06-1.51,2.87-3.92,4.26-5.91,1.28-1.25,3.18-1.54,4.39-2.89.31-.31.66-.58,1.02-.82,1.58-.79,2.93-1.89,4.24-3.05,1.69-1.09,3.49-1.59,5.49-1.03.72.31,1.26.76,1.19,1.64-.66,1.33-1.93,1.09-3.06,1.19-1.4,2.36-4.69,2.45-5.97,4.96-4.75,2.63-8.2,6.72-11.94,10.49-7.28,7.33-13.71,6.46-18.61-2.53-.39-.71-.97-1.32-1.46-1.97Z"/>
    <path class="cls-208"
          d="m119.95,116.75l-1.01-1c-.91-.67-1.56-1.5-1.69-2.66-.03-.44.01-.88.11-1.31.49-1.2.64-2.64,2.15-3.14.48.08.78.35.9.82,1.35,1.73.66,3.95,1.37,5.83-.32.46-.64.93-.96,1.39,0,0-.44.1-.44.1l-.45-.04Z"/>
    <path class="cls-265"
          d="m110.93,106.95c1.96-.03,3.92-.07,5.88-.1,1.7.35,3.68-.63,5.1,1.06-.33.33-.67.66-1,1-.33.47-.67.48-1.02.02l.02.02c-1.14-.93-1.89.7-2.93.46-2.03-.28-4.18,0-6.03-1.19-.31-.42-.33-.84-.01-1.26Z"/>
    <path class="cls-167"
          d="m119.89,108.93c.34,0,.68-.01,1.02-.02,1.23,2,1.08,4.19.88,6.38-.63-2.12-1.27-4.24-1.9-6.37Z"/>
    <path class="cls-265" d="m131.9,121.91c1.48,1.67,1.48,3.33,0,5,0-1.67,0-3.33,0-5Z"/>
    <path class="cls-51"
          d="m91.92,68.93c1.36-.99,1.79-3.19,4.01-3.04.33.04.67.07,1,.11,3.26.76,3,2.62,1.52,4.86-1.57,1.93-4.61,1.89-5.81,4.34-.66.94-1.27,1.94-2.5,2.25-1.03.09-1.8-.37-2.44-1.12-.23-.4-.37-.84-.41-1.31.08-1.43.97-2.5,1.64-3.66.23-.38.49-.73.78-1.07.61-.65,1.27-1.23,2.21-1.35Z"/>
    <path class="cls-68"
          d="m116.91,62.96c-.86,1.61-3.16.37-4,2.01-1.05.5-1.69-.1-2.27-.84-.16-.46-.07-.85.28-1.19,0-.33,0-.67,0-1-.7-1.12-.15-2.18.15-3.26.58-1.3,1.3-2.44,2.85-2.73,1,.33,2,.66,3,1,0,.33,0,.66,0,1-1.49,1.67-.7,3.34,0,5Z"/>
    <path class="cls-135"
          d="m97.86,70.89c.49-1.78,1.38-3.64-.93-4.89,2.26-.42,1.33-3.99,3.97-4.04.49.43,1.21.62,1.4,1.36.03,1.74-.06,3.48.28,5.2,0,.43-.1.85-.28,1.24-.73.83-1.86.86-2.76,1.36-.39.16-.79.2-1.2.15-.16-.13-.32-.26-.48-.39Z"/>
    <path class="cls-36"
          d="m125.92,61.94c-1.54-1.86-5.01-2.42-4.02-5.98-1-.67-2-1.34-3-2.01,2.58-1.5,3.78-.12,3.94,2.22.17,2.42.99,2.94,3.04,1.8.01,1.32.03,2.64.04,3.97Z"/>
    <path class="cls-228" d="m113.91,55.96c-.67,1-1.33,2-2,3-1.12.57-2.1.85-2.01-1.01,1.54-.26.7-5.28,4-1.99Z"/>
    <path class="cls-201" d="m109.91,57.95c.43.81,1.18.99,2.01,1.01-.33,1-.67,1.99-1,2.99-4.8-.2-2.38-2.23-1.01-3.99Z"/>
    <path class="cls-24"
          d="m101.93,62.96c-.34-.33-.69-.67-1.03-1,2.01.29,4.24-.79,6.02.95-.29.38-.66.65-1.1.83-.68.21-1.38.26-2.09.19-.72-.1-1.33-.42-1.81-.97Z"/>
    <path class="cls-91"
          d="m105.94,63.01c.33-.03.65-.06.98-.1,1.33.01,2.67.02,4,.03.06.31.11.63.16.94-2,1.39-3.87,2-5.14-.88Z"/>
    <path class="cls-193"
          d="m75.84,100.79c-4.05,1.97-7.92,1.16-11.7-.79-.05-.29-.07-.58-.06-.88-.11-.63.12-1.17.43-1.69.42-.7.83-1.42,1.58-1.84.43-.08.84-.03,1.24.15.55.37.95.88,1.24,1.47,1.47,3.12,5.2,1.66,7.27,3.58Z"/>
    <path class="cls-132"
          d="m64.95,97.91c-.29.4-.58.81-.87,1.21-1.02-.42-2.04-.83-3.06-1.25-.83-.75-1.09-1.69-.94-2.77.1-.5.32-.95.65-1.35.66-.43,1.37-.5,2.11-.22,1.38,1.13,1.75,2.75,2.11,4.38Z"/>
    <path class="cls-138"
          d="m60.83,94.89c.06,1,.13,1.99.19,2.99-.34.05-.69.1-1.03.14,0,0-.15-.24-.15-.24-2.06-1.02-2.12-2.88-2.01-4.81.11-.8.39-1.54.96-2.13,3.26.05,1.19,2.78,2.03,4.05Z"/>
    <path class="cls-269"
          d="m55.96,92.93c.04-2.3.09-4.6.13-6.9.62-.7,1.24-1.4,1.86-2.09,2,2.25.91,4.55.12,6.84-.2,1.31-.04,2.64-.31,3.95-.31.79-.78,1.36-1.73,1.29-.03-1.03-.05-2.06-.08-3.09Z"/>
    <path class="cls-37"
          d="m56.04,96.02c.32-.36.65-.72.97-1.09.85-.41-.07-2.52,1.83-1.92.05,1.65.18,3.28,1.01,4.76-1.59.11-3.53.98-3.81-1.76Z"/>
    <path class="cls-68"
          d="m122.91,71.94c-.95-.64-1.04-1.62-1-2.62.18-4.25-1.7-3.13-4.01-.99v-5.38c1.39-.84,1.42,2.4,2.99,1,1.58.9,2.91,2.42,5.01,2-1.12,1.94-2.9,3.54-2.99,5.99Z"/>
    <path class="cls-9"
          d="m120.9,63.95c-1.48,1.12-2.08-.39-2.99-1-.33,0-.67,0-1,0-3.93-1.67-2.33-3.34,0-5,.02.81.18,1.56.98,1.99,1.1.07,2.1.41,3.02,1.02,0,1,0,2-.01,2.99Z"/>
    <path class="cls-154"
          d="m120.91,60.95c-1.39.8-2.44.59-3.02-1.02.66-1.02,1.19-2.52,2.65-2.04.41.13.26,1.99.37,3.06Z"/>
    <path class="cls-17"
          d="m87.94,75.94c.72.35,1.45.7,2.17,1.05.3.4.46.85.49,1.35-.64,3.04-1.39,6.06-2,9.11-.24.42-.6.7-1.06.85-2.12-.27-3.47-2.08-5.39-2.76-.37-.26-.66-.6-.87-1-.68-1.62-.27-3.48-1.12-5.06-.4-.79-.82-1.57-.99-2.46-.09-.7,0-1.35.43-1.93.79-.4,1.57-.79,2.36-1.19,0,0-.01,0-.01,0,1.17,1.23,2.61-.27,3.84.37.92.28,1.49,1.03,2.15,1.65Z"/>
    <path class="cls-237"
          d="m79.73,76.89c.41.69.83,1.37,1.24,2.06,1.15,1.89-.24,4.16.9,6.05h-.04c1.11.91,1.15,2.08.75,3.34-.23.46-.59.76-1.07.91-.5-.05-.9-.27-1.22-.66-2.28-5.23-3.21-11.24-8.48-14.76.06-.27.13-.55.2-.82,1.15-.87,2.32-1.65,3.86-1,.35.64.71,1.28,1.06,1.93.54,1.35,2.29,1.56,2.79,2.95Z"/>
    <path class="cls-150"
          d="m59.94,69.94c.67-.99,1.34-1.98,2.01-2.97,2.77-2.33,5.99-.72,8.99-1.01-3.09,2.92-6.8,4.14-11,3.99Z"/>
    <path class="cls-80"
          d="m75.88,72.02c-1.29.33-2.57.66-3.86,1,.66-1.01,1.32-2.02,1.98-3.03.31-.03.62-.03.94,0,.32.68.63,1.36.95,2.04Z"/>
    <path class="cls-274" d="m79.73,76.89c-1.18-.75-2.81-1.07-2.79-2.95.89.38,1.78.77,2.66,1.15.04.6.09,1.2.13,1.8Z"/>
    <path class="cls-188"
          d="m91.92,68.93c-.66.67-1.32,1.35-1.99,2.02-.61-1.25-1.83-1.58-3-2,.13-1.38-.46-2.95.99-4,3.08-.43,4.44.86,3.99,3.98Z"/>
    <path class="cls-51"
          d="m85.92,74.95c-1.37-.15-2.95.48-3.98-1.03,2.75.92,1.1-4.07,3.99-2.97,1.11,1.33,1.19,2.67,0,4Z"/>
    <path class="cls-94"
          d="m86.94,68.95c1.01-.32,2.02-1.53,3-.61.43.41.03,1.71,0,2.61,0,0,0,0,0,0-.73,1.01-1.51,1.77-2.73.63-.1-.2-.2-.41-.3-.61.01-.67.02-1.34.03-2.02Z"/>
    <path class="cls-106" d="m83.85,64.84c1.47,2.07.64,3.08-.19,4.12-1.39-1.26-.71-2.37.19-4.12Z"/>
    <path class="cls-135"
          d="m85.92,74.95c0-1.33,0-2.66,0-4,.32,0,.65,0,.97.02,0,0,.03-.02.03-.02,1.16,1.11.49,2.67.98,3.95,0,.35.01.7.02,1.05-.83-.02-1.58-.19-2.01-1Z"/>
    <path class="cls-145"
          d="m62.95,77.94c.02-.31.04-.63.05-.94,1.28-.36,2.56-.73,3.84-1.09,5.65-1.93,7.13-1.64,9.81,3.69,2.22,4.39,5.54,8.73,3.58,14.25-3.52.11-1.86-2.78-2.79-4.01-.43.8,1.05,2.91-1.33,3.3-1.68-1.16-1.27-3.16-1.9-4.74-.44-2.08-1.48-3.97-1.91-6.05-.38-3.08-2.29-4.13-5.17-3.88-1.43.12-2.92.79-4.18-.52Z"/>
    <path class="cls-218"
          d="m79.91,93.94c.66-6.52-2.62-11.55-6.04-16.63-2.03-3.02-4.62-1.32-7.02-1.41,1.29-1.56,3.06-1.99,4.97-2.07,4.29-.1,5.24,3.57,6.58,6.34,1.33,2.76,1.83,5.93,2.69,8.92,1.44,1.75,1.22,3.72.79,5.73-.3.85-.81,1.52-1.69,1.84-.41-.28-.82-.56-1.24-.84-.46-1.02.24-1.45.95-1.88Z"/>
    <path class="cls-272"
          d="m62.95,77.94c3.5-.26,7.33-2.71,10.12,1.65.63.98.82,1.71-.24,2.42-2.63,1.29-5.78-.61-8.28,1.39-.3.28-.61.55-.91.83-.56.56-1.12,1.13-1.62,1.74-.22.33-.44.65-.65.98-.58,1.05-.89,2.26-1.84,3.09-.54.31-1.02.7-1.42,1.18-.43.15-.79.05-1.09-.28.43-2.32,1.34-4.57.94-7,2.06-1.67,1.31-5.68,5-6Z"/>
    <path class="cls-196"
          d="m79.92,126.78c-.6.3-1.2.6-1.8.9-.41.95.13,2.22-.99,2.92-.01-1.59-.03-3.18-.05-4.77,1.28-.69,2.46-1.06,2.84.95Z"/>
    <path class="cls-19"
          d="m64.88,119.69c1.69.36,2.98,1.08,2.83,3.11-1.69,1.52-2.41-.59-3.59-.96-.15-.86-.05-1.63.76-2.15Z"/>
    <path class="cls-84"
          d="m80.19,96.66c.28-.59.57-1.17.85-1.76,1.05-1.91-.24-4.14.83-6.05l-.02.03c1.64-1.24,3.32-1.31,5.07-.23,1.23,1.11,1.28,2.61,1.36,4.1-.08,2.25.32,4.55-.73,6.7-2.48,1.78-3.7-1.15-5.61-1.52-.58-.42-1.16-.84-1.75-1.26Z"/>
    <path class="cls-251"
          d="m74.87,112.71c1.07-1.65,2.84-1.45,4.39-1.47,3.04-.03,4.88-1.41,5.7-4.28.17-.14.34-.28.52-.42.45.11.79.37,1.04.75.66,1.92,4.12,2.4,2.78,5.36-4.91.51-9.53,2.82-14.6,2.26-.27-.76-.25-1.49.18-2.19Z"/>
    <path class="cls-277"
          d="m75.84,100.79c-2.53.75-4.8-.46-7.17-.92-2.29-.44-1.15-1.79-.71-2.94.53-.55,1.17-.66,1.89-.54,1.64.63,3.16,1.62,5.01,1.6,1.39.56,1.05,1.72.99,2.8Z"/>
    <path class="cls-81"
          d="m85.95,106.88c-.33.03-.67.05-1,.08.05-1.3.11-2.59.16-3.89.63-1.03.83-2.31,1.77-3.17l.18-6.72c.53-.25.98-.14,1.34.33.86,1.38.78,2.94.83,4.47,0,1.75-.03,3.5.07,5.24.31,2.52-.58,3.96-3.35,3.67Z"/>
    <path class="cls-190"
          d="m79.91,93.94c-.32.63-.63,1.25-.95,1.88-.37.05-.73.09-1.1.14-.82-.99-2.07-.27-3.02-.75-.98-.8-1.67-1.63-.26-2.66.46-.11.89-.02,1.28.25,1.79-.82.56-2.78,1.54-4.04.86,1.77,1.69,3.48,2.52,5.19Z"/>
    <path class="cls-142"
          d="m86.88,99.9c-.13,1.31,1.87,3.82-1.77,3.17-1.06-1.71-2.12-3.43-3.18-5.14,2.04-.32,3.69.33,4.95,1.98Z"/>
    <path class="cls-189"
          d="m74.85,97.99c-1.99,1.82-3.52,1.15-4.8-.88.42-.73,1.1-.99,1.88-1.08.79,0,1.5.21,2.06.79.28.39.57.78.85,1.18Z"/>
    <path class="cls-193"
          d="m74,96.82c-.68-.03-1.36-.06-2.05-.09-.3-1.09.24-1.77,1.13-2.27.71-.16,1.38,0,2.03.3.97.27,2.14.1,2.74,1.2-1.31.16-2.81-.48-3.86.86Z"/>
    <path class="cls-187"
          d="m74.87,112.71c.04.74.09,1.47.13,2.21.89,1.11.83,2.17-.17,3.18-1.17-1.17-.86-2.78-1.22-4.19.42-.4.84-.81,1.26-1.21Z"/>
    <path class="cls-99"
          d="m79.92,126.78c-.68-1.12-1.83-.84-2.84-.95-.04-.65-.09-1.31-.14-1.96.01-.35.02-.7.03-1.06,1.67-.53,2.79.86,4.22,1.18,1.19.51,2.4.99,3.03,2.26.16.62.18,1.25.24,1.89.24,1.67,1.2,3.2,1.04,4.96-.12.44-.38.76-.78.98-3.52-1.16-2.43-5.37-4.81-7.29Z"/>
    <path class="cls-107"
          d="m74.83,118.11c.06-1.06.11-2.12.17-3.18,4.42-2.16,9.25-2.4,14-3,6.66-2.6,13.04-2.08,19.11,1.74,1.46.92,2.46,2.16,2.09,4.06-.24.85-.73,1.55-1.31,2.19l.08-.06c-1.07.96-2.13,1.92-3.75,1.46-.4-.26-.67-.63-.84-1.08-1.06-4.58-4.79-2.94-7.66-3.27-.95.42-1.67,1.36-2.85,1.27-1.38-.44-2.68-1.26-4.24-.96-3.69,1.72-7.35,3.5-11.43,4.1-1.13.09-1.68-.71-2.26-1.47-.37-.6-.73-1.19-1.1-1.79Z"/>
    <path class="cls-187"
          d="m75.93,119.9c.65.36,1.3.72,1.95,1.08,1.94.54,3.33,1.52,3.1,3.82-1.89.47-2.56-1.54-4-1.99-.24-1.01-1.43-1.68-1.05-2.91Z"/>
    <path class="cls-91"
          d="m101.93,62.96c.66.01,1.32.03,1.98.04,2.9,2.44,6.32,3.18,10.01,3.01,1.66-.4,3.29-.84,3.04,1.9-.1,1.1-.2,2.31.91,3.1.02.31.03.62.04.93-.16,2.63-2.37,2.42-3.63,1.89-4.08-1.71-8.82-1.82-12.32-4.94-1.31-1.97-1.27-3.95-.04-5.93Z"/>
    <path class="cls-104"
          d="m116.96,79.83c1.74,4.89,2.79,9.87,1.89,15.09-2.83-2.59-1.49-6.83-3.8-9.62-.4-1.39-.36-2.83-.43-4.26-.04-1.29-.29-2.42-1.94-2.47-.44-.06-.85-.19-1.26-.37-1.12-.78-2.55-1.26-2.83-2.87.17-.49.48-.86.95-1.09,2.7-.58,5.14-.09,7.24,1.76l.17,3.83Z"/>
    <path class="cls-70"
          d="m101.97,68.89c3.67.63,7.24,1.63,10.61,3.21,1.88.88,3.6,1.49,5.34-.16.8.43.97,1.18.99,2-1.78,1.31-3.57,1.98-5.8.88-1.58-.78-3.39-.92-5.18-.89-2.2-1.02-5.25-.76-6-3.97.01-.36.03-.71.04-1.07Z"/>
    <path class="cls-242"
          d="m107.94,72.93c3.69-.02,7.07,3.19,10.96,1.01-.39,1.01-1.12,1.68-2.12,2.06-2.6-.41-5.21-.82-7.81-1.23-.65,0-1.1-.33-1.41-.88-.11-.41.02-.74.38-.97Z"/>
    <path class="cls-271"
          d="m113.92,66.01c.12.89,1.32,3.06-.34,2.32-3.05-1.36-6.3-1.95-9.32-3.24-1.11-.48-.6-1.33-.36-2.09.68,0,1.35,0,2.03,0,1.49,1.6,3.4.73,5.13.88.61.36,1.22.72,1.83,1.08.34.35.68.7,1.01,1.04Z"/>
    <path class="cls-129"
          d="m115.92,84.93c3.14,2.69.97,6.94,2.92,9.98-1.15,1.48-.39,3.69-1.93,5.03-.17-5.31-.57-10.57-4.01-15.01-3-3.44-3.6-3.41-4.88.23-.64.4-1.32.44-2.02.21-1.1-.61-1.95-1.48-2.6-2.55-.2-.48-.27-.98-.25-1.5,3.03-3.88,8.73-3.64,11.44.45.65.98.54,2.25,1.32,3.16Z"/>
    <path class="cls-174"
          d="m106.04,84.59c.63.04,1.26.08,1.88.12.48-.24.78-.09.91.43.62,1.97,2.52,3.48,2.09,5.82.79,1.04.51,1.77-.66,2.24-.75-.08-1.3-.49-1.71-1.1.05-2.1-1.95-2.41-3.09-3.48-.51-.91-.6-1.85-.35-2.85.17-.5.48-.9.92-1.18Z"/>
    <path class="cls-214"
          d="m109.86,99.84c-1.08.75-.83,1.93-.96,2.99-.92.89-1.97.59-3.02.32-.7-3.82.73-6.56,4.19-8.27.75,1.02.65,2.01-.07,3-.05.65-.1,1.31-.15,1.96Z"/>
    <path class="cls-179"
          d="m110,97.88l-.39-2.72c.31-.73-.15-1.63.49-2.29.27-.64.54-1.27.82-1.91.63.58,1.26,1.15,1.89,1.73-1.05,1.6.33,3.66-1.02,5.2-.6,0-1.2,0-1.8-.01Z"/>
    <path class="cls-270"
          d="m108.83,85.14c-.3-.14-.61-.28-.91-.43.33-.89-1.45-2.45.75-2.72,2.2-.27,4.04.21,4.24,2.94-1.36.09-2.94-4.18-4.08.2Z"/>
    <path class="cls-270" d="m111.8,97.89c.12-1.78-.32-3.66,1.02-5.2-.16,1.77.87,3.77-1.02,5.2Z"/>
    <path class="cls-27"
          d="m85.95,106.88c.54-1.15,3.3-.75,2.15-3.08.33-.28.71-.5,1.12-.66.41-.1.83-.14,1.25-.13.98.05,1.98.16,2.75-.68.47-.44,1-.75,1.66-.77.88.13,1.63.52,2.28,1.14.27.35.51.72.74,1.09,3.19,2.75,7.49,1.59,11.02,3.14.67.01,1.34.02,2.01.04,0,.3-.02.6-.02.9-2.49,2.42-5.86.78-8.64,1.89-1.08.22-2.16.23-3.24.06-2.04-.66-4.17-.51-6.26-.68-2.33-.49-4.77-.59-6.86-1.91l.05-.33Z"/>
    <path class="cls-79"
          d="m108.92,106.92c-3.81,0-7.62.24-11.33-1.01-1.27-.43-1.7-.92-.64-2,2.02-1.59,4.17-1.54,6.42-.56.2.2.4.41.6.61,1.12,1.88,3.66,1.37,4.96,2.96Z"/>
    <path class="cls-79"
          d="m105.66,102.92c1.08-.03,2.16-.06,3.24-.09-1.31,1.83-3.28.81-4.94,1.13,0,0-.13-.13-.13-.13-.24-.41-.2-.79.09-1.16.63-.3,1.23-.33,1.74.25Z"/>
    <path class="cls-245"
          d="m94.06,134.2c-.31.27-.63.53-.94.8-.81.49-1.26.05-1.63-.62-.59-1.6,1.21-3.45-.5-4.95-.28-.4-.4-.83-.36-1.32.25-.44.6-.77,1.05-.98,1.25-.45,2.51-.46,3.8-.19,1.8.57,2.55,1.74,2.06,3.61-.06,2.26-2.79,1.99-3.48,3.65Z"/>
    <path class="cls-11"
          d="m97,130.99c-.07-1.49-.09-3.02-2.16-3.14-.22-.48-.18-.93.17-1.34,2.15-1.09,4.13-2.77,6.83-1.88.61,2.16-1.32,3.37-1.91,5.08-.64.42-1.27.84-1.91,1.25-.33.45-.67.44-1.02.02Z"/>
    <path class="cls-147"
          d="m91.87,134.02c.41.33.83.66,1.24.98-3.05,1.95-5.91,2.21-8.39-.93.06-.35.12-.69.18-1.04,2.06-1.82,3.98.52,5.99.2.42.14.75.4.97.78Z"/>
    <path class="cls-210"
          d="m117.9,112.9c.35.95.69,1.9,1.04,2.85-2,.37-4.01.73-6.01,1.1-.14-.19-.28-.38-.42-.57-.05-2.82,1.98-3.46,4.14-3.96.48.06.9.25,1.25.59Z"/>
    <path class="cls-7"
          d="m99.93,129.71c-.44-2.05,1.17-3.26,1.98-4.79-.57-.53-.63-1.16-.37-1.85.46-.62,1.09-.76,1.81-.6.18.13.37.27.55.4.54,3.37-1.77,5.07-3.98,6.84Z"/>
    <path class="cls-213"
          d="m104.92,120.89c1.34-.34,2.69-.68,4.03-1.03-.71,2.62-2.34,3.72-5.04,3.01,0,0,.04.09.04.09-.71-1.17-.71-2.02.97-2.07Z"/>
    <path class="cls-62"
          d="m108.87,119.92c.05-.56.1-1.12.14-1.67,1.05-1.25,2.07-2.57,3.96-1.34,0,0-.04-.06-.04-.06-.52,2.12-1.87,3.16-4.06,3.07Z"/>
    <path class="cls-155"
          d="m97,130.99c.34,0,.68-.01,1.02-.02-.5,2.1-1.77,3.23-3.97,3.23-.53-2.46,2.16-1.97,2.95-3.22Z"/>
    <path class="cls-158"
          d="m117.9,112.9c-.35-.05-.69-.09-1.04-.14-4.83-1.97-10.2-1.88-15.02-3.9,2.85-1.81,6.06-.47,9.05-1.01,2.3.29,4.81-.62,6.82,1.24,1.05.87.75,1.84.24,2.84-.03.32-.05.64-.06.97Z"/>
    <path class="cls-167"
          d="m117.97,111.94c-.08-.95-.16-1.89-.24-2.84.66-.97,1.36-1.4,2.17-.15-1.87.2-.68,2.39-1.94,2.99Z"/>
    <path class="cls-54"
          d="m90.26,78.05c-.05-.35-.1-.71-.15-1.06.6-.73,1.21-1.46,1.81-2.19.99-1.31,2.14-2.14,3.84-1.21-.46,4.45-1.99,5.69-5.5,4.45Z"/>
    <path class="cls-135"
          d="m95.85,73.64c-1.31.39-2.62.78-3.93,1.17.48-3.59,3.82-2.83,5.95-3.92,0,0,.14.15.14.15.19,1.62-.65,2.39-2.15,2.6Z"/>
    <path class="cls-188" d="m87.91,74.89c-1.45-1.04-.83-2.59-.98-3.95,1,.64,2,.62,3,0,.13,1.73-1.45,2.58-2.02,3.95Z"/>
    <path class="cls-124"
          d="m95.85,73.64c.72-.87,1.44-1.73,2.15-2.6.28-.06.56-.1.84-.14,1.64-1.22,2.73.44,4.07.78.65,1.5-.56,2.08-1.44,2.73-4.85,3.57-9.16,7.58-11.54,13.3-.33.78-.9,1.38-1.84,1.44-.45-.3-.58-.72-.42-1.23.46-3.4.46-6.92,2.58-9.88,3.49.59,4.2-2.34,5.59-4.41Z"/>
    <path class="cls-185"
          d="m102.98,72.01c-1.38-.37-2.76-.74-4.14-1.11.63-1.63,1.73-1.72,3.09-.94,2.01.99,4.01,1.98,6.02,2.97,0,.34-.01.68-.02,1.02-2.39,1.25-3.83.07-4.95-1.94Z"/>
    <path class="cls-220"
          d="m64.95,97.91c-1.8-.71-1.94-2.32-2.11-3.92-.78-.92-1.02-2.03-1.14-3.19-.12-.69-.24-1.38-.26-2.09.04-.49.19-.95.44-1.37,1.19-1.4,2.75-2.1,4.52-2.43,1.58-.12,3.1-.06,4.06,1.51.27.72.27,1.44-.02,2.16-3.65,1.14-4.56,4.02-4.67,7.4.12.81,0,1.51-.81,1.92Z"/>
    <path class="cls-276"
          d="m65.76,95.99c-1.93-5.84-.6-8.17,4.15-7.21.77.2,1.3.68,1.66,1.37.2.47.31.95.35,1.46-.1,3.21-1.96,4.42-4.95,4.3-.4.03-.8.05-1.21.08Z"/>
    <path class="cls-21"
          d="m66.97,95.91c1.86-1.31,4.64-1.89,4.06-5.12,2.64.45,1.69,2.57,1.92,4.14-.33.6-.66,1.2-1,1.8-.63.13-1.27.25-1.9.38-.7-.06-1.4-.12-2.1-.18-.33-.34-.66-.68-.99-1.02Z"/>
    <path class="cls-118"
          d="m62.03,88.5c.26.39.52.77.77,1.16-.5,1.47-.57,3.11-1.74,4.31-.12.29-.2.6-.24.91-1.57-.78-.27-3.03-1.92-3.77-.35.19-.61.1-.77-.26.25-.35.49-.7.74-1.05,1.11-.3,1.82-1.54,3.16-1.3Z"/>
    <path class="cls-224"
          d="m61.07,93.97c-.09-1.71.66-3.08,1.74-4.31.01,1.44.02,2.89.03,4.33-.59,0-1.18-.02-1.77-.02Z"/>
    <path class="cls-257"
          d="m58.14,90.85c.29,0,.54.09.77.26-.02.63-.04,1.27-.07,1.9-.61.64-1.22,1.28-1.84,1.92,0-1.33,0-2.67,0-4,.38-.03.75-.05,1.13-.08Z"/>
    <path class="cls-279"
          d="m86.87,88.99c-1.67-.04-3.35-.08-5.02-.11,0-1.29-.01-2.59-.02-3.88,2.47-.36,4.03.87,5.1,2.94.32.25.41.49.29.72-.12.22-.23.33-.35.33Z"/>
    <path class="cls-51" d="m81.87,85c-1.29-1.87-.76-4.01-.9-6.05,1.75,1.8.7,4.02.9,6.05Z"/>
    <path class="cls-93"
          d="m86.87,88.99c.02-.35.04-.7.06-1.05.25,0,.5,0,.74,0,.12.33.24.66.36,1,.98,1.05.96,2.21.37,3.42-.18.16-.37.33-.56.49-.28.08-.54.19-.78.34-.06-1.39-.13-2.79-.19-4.19Z"/>
    <path class="cls-279" d="m81.87,88.85c-.12,2.04.79,4.22-.83,6.05.02-1.94.03-3.87.05-5.8.25-.11.52-.19.79-.25Z"/>
    <path class="cls-267"
          d="m63.04,82.95c3.04-2.66,6.39-2.13,9.79-.94,1.02,1.87,2.51,3.58,2.05,5.96-.2.07-.4.13-.6.2-.65-.09-1.19-.4-1.67-.84-.31-.29-.59-.6-.86-.92-1.3-1.96-3.36-1.36-5.19-1.53-1.52-.02-2.59-.85-3.53-1.93Z"/>
    <path class="cls-100"
          d="m75.85,92.79l-.34.03-.34-.04c-1.61-1.43-1.59-2.97-.35-4.61,0,0,.05-.2.05-.2,1.66,1.34.93,3.16.97,4.82Z"/>
    <path class="cls-90"
          d="m63.04,82.95c1.31.35,2.61.71,3.92,1.06.33.25.43.56.31.96-.38.43-.96.59-1.35,1-1.3.82-2.61,1.65-3.91,2.47-.91-.6-1.47-1.36-1.08-2.51l.09.07c.6-.7,1.87-.83,1.82-2.11-.03-.33.04-.64.2-.93Z"/>
    <path class="cls-259"
          d="m60.93,85.92c.36.84.72,1.67,1.08,2.51,0,0,.02.07.02.07-.94.71-1.83,1.54-3.16,1.3.68-1.29,1.37-2.59,2.05-3.88Z"/>
    <path class="cls-164" d="m62.84,83.88c1.97,2.93-.79,1.77-1.82,2.11.21-1.05,1.01-1.58,1.82-2.11Z"/>
    <path class="cls-246"
          d="m101.85,108.87c5.34,0,10.76-.29,15.02,3.9-1.31,1.37-4.3,1.16-3.9,4.14-1.5-.1-2.69.72-3.96,1.34-.15-5.88-5.28-5.38-8.73-6.15-3.6-.8-7.51-.18-11.29-.18.6-2.64-4.97-1.23-3.09-4.71,2.44-.69,4.72.19,7.03.73,1.87,1.24,4.16-.21,6.05.94.96,0,1.91,0,2.87,0Z"/>
    <path class="cls-126"
          d="m108.93,75.92c1.4.07,2.43.69,2.99,2.01-1.01,1.21-2.34.94-3.66.8-3.01-.32-5.49.68-7.39,3.05-.65.67-1.43,1.17-2.2,1.68-.71.5-1.44.96-2.13,1.48-1.08.75-1.52,1.88-1.86,3.07-.53,1.48.03,2.9.21,4.35.06.92-.06,1.79-.61,2.56-2.9-.69-4.19,1.9-6.2,3.03-.08-1.71-.16-3.41-.23-5.12,0,0,0,.06,0,.06,1.97-7.52,6.55-13.08,13.11-17.01,2.53-1.52,5.34-2.91,7.98.04Z"/>
    <path class="cls-61"
          d="m88.08,97.95c.3-.56.75-1.08.86-1.67.67-3.76,2.46-3.56,4.86-1.45.45.28.77.66.97,1.15.4,1.98,1.01,3.95.15,5.96-.35.34-.71.68-1.06,1.02-1.24.18-1.53-.74-1.88-1.6-.41-.42-.14-2.7-1.46-.58-.59.96-.64,2.24-1.55,3.07h-.44s-.43-.05-.43-.05c0-1.95-.01-3.9-.02-5.85Z"/>
    <path class="cls-278"
          d="m74.83,88.17c.11,1.54.23,3.08.35,4.61-1.37.61-.28,1.31-.06,1.97-.72.06-1.44.11-2.16.17-1.75-.87-.29-3.22-1.92-4.14,0-.24.01-.48.02-.73.35-1.15.84-2.21,1.8-2.99.66.37,1.32.74,1.98,1.11Z"/>
    <path class="cls-117"
          d="m104.92,120.89c-.8.47-1.04,1.2-.97,2.07-.68.06-1.35.11-2.03.17-2.57,2.31-5.91,2.74-9.02,3.72-2.28.07-4.54.41-6.8.74-.8.05-1.54-.11-2.12-.71-1-.69-2-1.38-3-2.08-1.03-1.27-2.06-2.55-3.1-3.82,4.02-1.69,8.03-3.38,12.05-5.07,1.09,1.16,2.41,1.88,4.01,2.02.66-.67,1.32-1.35,1.99-2.02,3.09,1.12,7.07.24,8.99,4,0,.33,0,.65,0,.98Z"/>
    <path class="cls-198"
          d="m90.93,133.89c-2.28,1.62-3.92-1.29-6.03-.86-.65-1.72-1.3-3.44-1.95-5.15.9-.72,1.95-.39,2.94-.4,1.8.06,3.61.04,5.03,1.42h0c1.36,1.67,1.03,3.33,0,5Z"/>
    <path class="cls-13"
          d="m85.95,127.94c-1-.02-2-.04-3-.06.34-.33.68-.67,1.02-1,.66-.03,1.31-.07,1.97-.1,2.17-.74,4.42-.19,6.62-.36.82.04,1.69-.16,2.38.5-.02.31-.06.63-.1.94-1.3.04-2.61.09-3.91.13-1.67.61-3.33.67-4.99-.04Z"/>
    <path class="cls-86"
          d="m104.91,119.91c-3-1.33-5.99-2.67-8.99-4,2.54-1.18,5.02.03,7.43.47,1.15.21,3.41,1.32,1.56,3.52Z"/>
    <path class="cls-130" d="m93.94,117.93c-2.73,2.09-3.49.28-4.01-2.02,1.73-.1,3.26.19,4.01,2.02Z"/>
    <path class="cls-81"
          d="m108.93,75.92c-4.68-2.15-7.76,1.07-10.88,3.49-4.57,3.54-7.64,8.36-10.21,13.48.06-1.32.13-2.65.19-3.97,2.84-7.53,8.24-12.8,14.94-16.91,1.66.61,3.04,1.94,4.95,1.94.35.28.7.55,1.05.83-.01.38-.03.76-.04,1.14Z"/>
    <path class="cls-8"
          d="m99.94,81.89c.59-3.46,3.3-3.76,6-3.93,1.99-.12,3.99-.03,5.98-.03.33.02.66.02.99.02,1.49-.04,2.3.91,2.98,2.04.01,1.65.02,3.3.04,4.94-2.09-2.55-3.97-5.45-7.85-5.34-1.79.05-3.79-.17-4.18,2.38-1.34.98-2.66,1.18-3.96-.08Z"/>
    <path class="cls-178" d="m115.89,79.99c-.99-.68-1.99-1.36-2.98-2.04,2.69-1.8,2.56.52,2.98,2.04Z"/>
    <path class="cls-173"
          d="m93.93,92.11c-.47-1.41-1.77-2.81-.04-4.24.9-1.19.84-2.92,2.18-3.85.62-.37,1.23-.75,1.85-1.12,2.01-.7,4.03-.65,6.05-.04.99.22,1.92.52,2.07,1.75-.03.35-.06.71-.09,1.06-1.1,1.77-2.95,1.39-4.58,1.62-1.18.02-2.1.58-2.9,1.38-1.52,1.13-1.96,3.71-4.53,3.45Z"/>
    <path class="cls-81"
          d="m103.97,82.85c-2.02.02-4.04.03-6.05.05.67-.33,1.34-.66,2.02-1,1.32.03,2.64.05,3.96.08.02.29.05.58.08.88Z"/>
    <path class="cls-204"
          d="m105.66,102.92c-.57.06-1.13.13-1.7.19-1.8.64-3.54.26-5.28-.28-1.25-.54-2.16-1.41-2.57-2.74-.24-1.01-.18-1.98.36-2.89.35-.4.84-.59,1.29-.37,6.1,3.02,6.95,2.55,6.96-3.98.85-.91,1.96-1.25,3.13-1.46.48,0,.91.16,1.3.45.32.34.64.69.95,1.03-.12.77.81,1.77-.49,2.29-1.32,2.59-2.63,5.17-3.95,7.76Z"/>
    <path class="cls-177"
          d="m100.01,86.14c1.98-.16,3.96-.32,5.94-.48-.01,1.07-.03,2.13-.04,3.2-.2.09-.4.18-.61.27-.44-.07-.86-.21-1.26-.39-1.19-1.1-3.76-.07-4.03-2.6Z"/>
    <path class="cls-103"
          d="m109.15,91.84c-.42-.03-.84-.06-1.26-.08-1.04-.09-1.72-.7-2.23-1.56-.16-.48-.07-.91.26-1.29,0,0,0-.05,0-.05,2.5-.55,4.36-.41,3.24,2.98Z"/>
    <path class="cls-25"
          d="m96.87,100.09c.64.73,1.28,1.46,1.92,2.19-.17,1.6-1.13,1.11-2.04.78-.61-.37-1.22-.75-1.84-1.12-1.1-1.94-1.06-4.06-.94-6.18,2.81.21,1.83,2.95,2.89,4.33Z"/>
    <path class="cls-127"
          d="m88.97,103.85c.09-1.14-.04-2.36.34-3.4.41-1.14.64-3.01,2.25-2.8,1.69.22,1.29,2,1.34,3.27-1.44.52-1.85,2.08-2.95,2.93l-.49.02-.49-.03Z"/>
    <path class="cls-234" d="m89.95,103.87c.58-1.38-.12-4.06,2.95-2.93.04.81.2,1.56.96,2.03-.58,3.43-2.63.47-3.91.91Z"/>
    <path class="cls-192"
          d="m96.75,103.06c.68-.26,1.36-.52,2.04-.78,1.73.28,3.45.55,5.18.82-.04.24-.09.48-.13.72-2.3.03-4.59.05-6.89.08-.04-.29-.11-.57-.2-.85Z"/>
    <path class="cls-158" d="m98.98,108.88c-2.03-.22-4.26.82-6.05-.94,2.03.2,4.23-.66,6.05.94Z"/>
    <path class="cls-97" d="m90.93,133.89c0-1.66,0-3.32,0-4.99,6.08.64.49,3.43.94,5.11-.31-.05-.63-.09-.94-.13Z"/>
    <path class="cls-5" d="m85.95,127.94c1.66.01,3.33.03,4.99.04,0,.31,0,.61,0,.92-1.68-.23-3.57.65-4.98-.96Z"/>
    <path class="cls-157"
          d="m94.95,126.91c-.8-.06-1.6-.13-2.4-.19.02-.36.19-.61.52-.76,2.95-.94,5.9-1.89,8.86-2.83,0,.6,0,1.2,0,1.79-2.46.17-4.36,2.32-6.97,1.99Z"/>
    <path class="cls-256"
          d="m72.85,87.06c.57,1.7.36,2.94-1.8,2.99-.38-.43-.75-.85-1.13-1.28.06-.58.13-1.16.19-1.74.25-.39.59-.66,1.04-.78.71-.09,1.32.14,1.85.61l-.14.2Z"/>
    <path class="cls-26"
          d="m71.12,86.8c-.34.08-.68.16-1.02.24-.99-1.91-2.71-1.03-4.18-1.08.34-.37.68-.74,1.03-1.11,1.78-.18,4.22-1.79,4.17,1.95Z"/>
    <path class="cls-64"
          d="m71.12,86.8c-.53-2.49-2.54-1.8-4.17-1.95,0-.28,0-.57.01-.85,2.47-.02,5.4-1.01,6.03,2.86-.62-.02-1.25-.04-1.87-.06Z"/>
    <path class="cls-166"
          d="m96.87,100.09c-.96-1.44-1.93-2.89-2.89-4.33,0-.32-.06-.63-.18-.93.05-.91.09-1.82.14-2.72,1.98-.7,2.12-2.94,3.48-4.15,2.5-.87,4.98-.96,7.41.24.36.24.72.48,1.09.72.13.2.21.43.24.67-.21.81-.86,1.1-1.56,1.32-1.28.37-2.7.15-3.89.91-2,1.11-2.17,3.58-3.71,5.03-.04,1.08-.08,2.17-.13,3.25Z"/>
    <path class="cls-81" d="m96.07,84.01c-.44,1.45-.81,2.93-2.18,3.85-.02-1.71.17-3.29,2.18-3.85Z"/>
    <path class="cls-20" d="m93.06,125.96c-.19.24-.36.49-.52.76-2.2.02-4.4.04-6.6.05,2.21-1.65,4.73-.65,7.12-.81Z"/>
    <path class="cls-230"
          d="m104.83,88.19c-2.44-1.05-4.94-.19-7.41-.24.63-.94,1.45-1.61,2.6-1.82,1.2,1.64,3.9-.25,4.81,2.06Z"/>
    <path class="cls-140"
          d="m96.99,96.84c-.12-2.51.63-4.59,2.9-5.92,1.82-1.01,3.25-.34,4.53,1.02.3.4.47.85.54,1.34,2.25,2.46,1.77,4.78-.73,6.53-3.75,2.62-5.5-.31-7.24-2.97Z"/>
    <path class="cls-214"
          d="m104.97,93.28c-.27-.18-.57-.33-.88-.43-.98-.85-.82-1.77-.18-2.73.75-.18,1.49-.36,2.24-.54.58.73,1.16,1.45,1.74,2.18-.48,1.44-1.82,1.26-2.92,1.52Z"/>
    <path class="cls-112"
          d="m103.91,90.11c.06.91.12,1.82.18,2.73-1.28-.89-2.32-2.32-4.19-1.93,1.14-1.26,2.59-.96,4.02-.8Z"/>
  </g>
</svg>
