<?xml version="1.0" encoding="UTF-8"?>
<svg id="_Слой_2" data-name="Слой 2" xmlns="http://www.w3.org/2000/svg" viewBox="0 0 187.84 187.84">
  <defs>
    <style>
      .cls-1 {
        fill: #020202;
      }

      .cls-1, .cls-2, .cls-3 {
        stroke-width: 0px;
      }

      .cls-2 {
        fill: #fdfdfd;
      }

      .cls-3 {
        fill: #29af62;
      }
    </style>
  </defs>
  <g id="_Слой_1-2" data-name="Слой 1">
    <path class="cls-2" d="m0,109.91v-31.97c2.42.84,1.63-1.28,1.84-2.17C11.11,36.08,35.74,11.69,75.13,1.88c1.04-.26,3.08.52,2.8-1.88h31.97c1.29,1.59,1.28,1.62,2.78,1.92,12.84,2.62,24.69,7.73,35.28,15.28,19.99,14.24,32.56,33.56,37.91,57.56.25,1.11-.91,3.52,1.96,3.16v31.97c-2.43-.84-1.63,1.28-1.82,2.18-1.47,6.81-3.37,13.51-6.29,19.83-13.35,28.84-35.71,46.61-66.52,53.97-1.17.28-3.42-.71-3.3,1.95h-31.97c-1.28-1.58-1.28-1.57-2.78-1.92-12.19-2.84-23.79-7.16-34.09-14.37C20.32,157.04,7.27,137.34,1.89,112.58c-.22-1.01.62-3.14-1.89-2.67Zm117.78-23.99c10.89.06,20.03-8.97,20.09-19.87.06-10.89-8.98-20.03-19.88-20.08-10.89-.06-20.02,8.97-20.07,19.87-.06,10.9,8.96,20.02,19.86,20.08Zm6.27,33.02h-63.56c3.53-3.59,6.22-6.64,8.21-10.29,3.96-7.26,3.27-15.11,3.34-22.89.1-12.24,7.64-20.34,19.77-21.26,2.01-.15,4.45.14,4.3-2.76-.16-3.03-2.73-2.81-4.91-2.76-10.07.22-19.75,7.43-23.14,16.94-1.79,5.01-1.62,10.15-1.45,15.27.29,8.76-1.86,16.43-8.69,22.38-2.23,1.94-2.98,4.51-1.89,7.23,1.17,2.9,3.61,4.16,6.76,4.12,3.99-.05,7.99.09,11.98-.05,2.48-.08,3.88.32,5.12,3.06,4.31,9.45,17.58,11.31,22.73,2.55,3.44-5.87,7.47-5.67,12.49-5.58,2.16.04,4.33-.01,6.49,0,3.11.03,5.5-1.08,6.73-4.11,1.25-3.09.06-5.51-2.19-7.56-5.89-5.39-8.48-12.13-8.28-20.03.06-2.18.28-4.87-2.74-4.9-3.07-.04-2.74,2.69-2.8,4.85-.27,10.03,3.54,18.35,11.73,25.79Z"/>
    <path class="cls-3" d="m117.78,85.92c-10.9-.06-19.92-9.18-19.86-20.08.06-10.89,9.18-19.92,20.07-19.87,10.9.06,19.94,9.19,19.88,20.08-.06,10.9-9.2,19.93-20.09,19.87Z"/>
    <path class="cls-1" d="m124.06,118.94c-8.2-7.45-12.01-15.76-11.73-25.79.06-2.16-.26-4.89,2.8-4.85,3.01.04,2.79,2.72,2.74,4.9-.2,7.9,2.38,14.64,8.28,20.03,2.25,2.06,3.45,4.47,2.19,7.56-1.23,3.03-3.62,4.14-6.73,4.11-2.16-.02-4.33.03-6.49,0-5.02-.09-9.04-.29-12.49,5.58-5.14,8.76-18.42,6.9-22.73-2.55-1.25-2.73-2.65-3.14-5.12-3.06-3.99.14-7.98,0-11.98.05-3.15.04-5.59-1.22-6.76-4.12-1.09-2.72-.34-5.28,1.89-7.23,6.84-5.95,8.99-13.62,8.69-22.38-.17-5.12-.34-10.26,1.45-15.27,3.39-9.51,13.07-16.72,23.14-16.94,2.18-.05,4.74-.27,4.91,2.76.16,2.91-2.28,2.61-4.3,2.76-12.12.92-19.66,9.02-19.77,21.26-.07,7.79.62,15.64-3.34,22.89-1.99,3.65-4.68,6.7-8.21,10.29h63.56Zm-24.38,6.21h-14.68c3.84,7,10.3,7.08,14.68,0Z"/>
    <path class="cls-2" d="m99.67,125.14c-4.38,7.08-10.84,7-14.68,0h14.68Z"/>
  </g>
</svg>