<?xml version="1.0" encoding="UTF-8"?>
<svg id="_Слой_2" data-name="Слой 2" xmlns="http://www.w3.org/2000/svg" viewBox="0 0 187.84 187.84">
  <defs>
    <style>
      .cls-1 {
        fill: #fdfdfd;
      }

      .cls-1, .cls-2 {
        stroke-width: 0px;
      }

      .cls-2 {
        fill: #080808;
      }
    </style>
  </defs>
  <g id="_Слой_1-2" data-name="Слой 1">
    <path class="cls-1" d="m187.84,77.93v31.97c-2.43-.84-1.63,1.28-1.82,2.18-1.47,6.81-3.37,13.51-6.29,19.83-13.35,28.84-35.71,46.61-66.52,53.97-1.17.28-3.42-.71-3.3,1.95h-31.97c-1.28-1.58-1.28-1.57-2.79-1.92-12.19-2.84-23.79-7.16-34.09-14.37C20.32,157.04,7.27,137.34,1.89,112.58c-.22-1.01.62-3.14-1.89-2.67v-31.97c2.42.83,1.63-1.28,1.84-2.17C11.11,36.08,35.74,11.69,75.13,1.88c1.04-.26,3.08.52,2.8-1.88h31.97c1.29,1.59,1.28,1.62,2.78,1.92,12.84,2.62,24.69,7.73,35.28,15.28,19.99,14.24,32.56,33.56,37.91,57.56.25,1.11-.91,3.52,1.96,3.16Zm-72.68-8.5c.02-12.02-9.4-21.51-21.3-21.48-11.7.04-21.08,9.4-21.15,21.12-.07,12.06,9.24,21.73,21.04,21.85,11.78.11,21.39-9.54,21.41-21.49Zm-28.98,54.48c5.31,0,10.63,0,15.94,0,2.83,0,6.17.4,6.1-3.81-.07-3.85-3.22-3.55-5.89-3.55-10.13-.01-20.25.05-30.38-.03-4.96-.04-5.78-1.46-4.04-6.18,1.58-4.29,4.08-7.94,7.52-10.93,2.05-1.78,2.9-3.97,1.1-6.05-1.89-2.19-4.05-1.31-6.06.47-4.96,4.41-8.47,9.78-10.38,16.07-2.35,7.73,2.42,13.86,10.66,13.99,5.15.08,10.29.01,15.44.02Zm42.16-11.47c-1.19-6.89-5.1-13.24-10.89-18.57-1.97-1.81-4.12-2.76-6.07-.59-1.86,2.06-1.04,4.26,1,6.05,3.56,3.12,6.02,6.96,7.78,11.37,1.24,3.11,1.04,5.15-2.56,5.95-2.33.52-3.44,1.98-3,4.3.52,2.73,2.59,3.16,4.95,2.88,5.02-.59,8.89-5.17,8.8-11.38Z"/>
    <path class="cls-2" d="m115.16,69.43c-.02,11.95-9.63,21.6-21.41,21.49-11.8-.11-21.12-9.78-21.04-21.85.07-11.72,9.44-21.08,21.15-21.12,11.9-.04,21.32,9.46,21.3,21.48Zm-21.15-14.01c-7.68-.06-13.98,6.17-14.02,13.88-.03,7.75,6.11,13.96,13.85,14,7.71.05,13.99-6.16,14.03-13.84.04-7.67-6.19-13.98-13.87-14.04Z"/>
    <path class="cls-2" d="m86.18,123.91c-5.15,0-10.29.07-15.44-.02-8.24-.13-13.01-6.26-10.66-13.99,1.91-6.29,5.41-11.66,10.38-16.07,2.01-1.79,4.18-2.66,6.06-.47,1.8,2.08.96,4.28-1.1,6.05-3.44,2.98-5.94,6.64-7.52,10.93-1.74,4.71-.92,6.13,4.04,6.18,10.13.09,20.25.02,30.38.03,2.67,0,5.83-.29,5.89,3.55.07,4.21-3.27,3.8-6.1,3.81-5.31,0-10.63,0-15.94,0Z"/>
    <path class="cls-2" d="m128.33,112.44c.09,6.22-3.78,10.79-8.8,11.38-2.37.28-4.43-.15-4.95-2.88-.44-2.32.68-3.78,3-4.3,3.6-.8,3.8-2.83,2.56-5.95-1.76-4.42-4.22-8.26-7.78-11.37-2.04-1.79-2.86-3.99-1-6.05,1.95-2.17,4.1-1.22,6.07.59,5.79,5.33,9.7,11.68,10.89,18.57Z"/>
    <path class="cls-1" d="m94.01,55.42c7.68.06,13.91,6.37,13.87,14.04-.04,7.68-6.33,13.89-14.03,13.84-7.74-.05-13.89-6.26-13.85-14,.03-7.7,6.33-13.94,14.02-13.88Z"/>
  </g>
</svg>