<svg xmlns="http://www.w3.org/2000/svg" width="60.413" height="97" viewBox="0 0 60.413 97">
  <g id="Сгруппировать_243" data-name="Сгруппировать 243" transform="translate(-579 0)">
    <path id="Контур_4" data-name="Контур 4" d="M-6526.077-7589v97l31.133-15.68,29.279,15.68v-97Z" transform="translate(7105.076 7589)" fill="#fcc000"/>
    <path id="Контур_653" data-name="Контур 653" d="M6.009-9.362A5.141,5.141,0,0,1,9.6-8.162,4.2,4.2,0,0,1,10.92-4.891a4.778,4.778,0,0,1-1.5,3.748A6.179,6.179,0,0,1,5.147.205,8.071,8.071,0,0,1,1.2-.6V-2.789a7.238,7.238,0,0,0,1.907.728,8.668,8.668,0,0,0,2,.256,3.72,3.72,0,0,0,2.481-.728,2.652,2.652,0,0,0,.851-2.133q0-2.687-3.425-2.687a8.976,8.976,0,0,0-1.189.1q-.708.1-1.241.22L1.507-7.67l.574-7.321H9.875v2.143H4.2L3.866-9.136q.359-.062.877-.144A8.267,8.267,0,0,1,6.009-9.362ZM16.211-2.2a34.462,34.462,0,0,1-1.8,4.912H12.633A50.466,50.466,0,0,0,13.689-2.44h2.369ZM28.68-7.5a10.664,10.664,0,0,1-1.256,5.8,4.288,4.288,0,0,1-3.84,1.9A4.257,4.257,0,0,1,19.79-1.753,10.473,10.473,0,0,1,18.5-7.5q0-3.968,1.256-5.85a4.289,4.289,0,0,1,3.83-1.882,4.26,4.26,0,0,1,3.8,1.969A10.551,10.551,0,0,1,28.68-7.5Zm-7.742,0a10.923,10.923,0,0,0,.631,4.378A2.1,2.1,0,0,0,23.584-1.8a2.12,2.12,0,0,0,2.025-1.333A10.784,10.784,0,0,0,26.25-7.5a10.868,10.868,0,0,0-.641-4.363,2.12,2.12,0,0,0-2.025-1.348,2.1,2.1,0,0,0-2.015,1.323A11,11,0,0,0,20.938-7.5Z" transform="translate(594 59)" fill="#222"/>
  </g>
</svg>
