<?xml version="1.0" encoding="UTF-8"?>
<svg id="_Слой_2" data-name="Слой 2" xmlns="http://www.w3.org/2000/svg" viewBox="0 0 511.83 511.83">
  <defs>
    <style>
      .cls-1 {
        fill: #32b3fe;
      }

      .cls-1, .cls-2, .cls-3, .cls-4 {
        stroke-width: 0px;
      }

      .cls-2 {
        fill: #fdfefe;
      }

      .cls-3 {
        fill: #199bde;
      }

      .cls-4 {
        fill: #0082bd;
      }
    </style>
  </defs>
  <g id="_Слой_1-2" data-name="Слой 1">
    <g>
      <path class="cls-1" d="m0,367.88c0-84.31,0-168.61,0-252.92,1.58-3.03,1.19-6.46,1.87-9.68C12.65,54.27,42.91,20.95,92.43,4.87c6.74-2.19,13.88-2.47,20.54-4.87h283.91c1.64,1.86,4.2.27,5.98,1.59.91,1.36,2.42,1.72,3.83,2.17,32.44,10.43,53.9,44.89,48.28,79.53-4.64,28.63-27.25,53.04-55.81,58.94-3.15.65-6.8,0-9.38,2.72-9.54-11-18.7-13.1-32.36-7.47-5.82,2.4-11.65,4.76-17.47,7.13-2.05-1-4.25-.65-6.4-.66-27.48-.02-54.96-.1-82.44.03-10.13.05-20.25,0-30.41.75-30.99,2.3-60.26,10.7-87.9,24.45-31.08,15.46-57.7,36.76-79.5,63.91-26.62,33.16-43.41,70.71-50.25,112.67C1.84,353.12,1,360.51,0,367.88Z"/>
      <path class="cls-3" d="m0,367.88c1-7.37,1.84-14.76,3.03-22.1,6.84-41.97,23.63-79.51,50.25-112.67,21.8-27.16,48.42-48.45,79.5-63.91,27.64-13.75,56.91-22.15,87.9-24.45,10.16-.75,20.28-.71,30.41-.75,27.48-.13,54.96-.05,82.44-.03,2.14,0,4.35-.34,6.39.66-1.07.47-2.12.96-3.2,1.4-86.07,35.57-172.14,71.14-258.2,106.71-8.07,3.33-12.14,9.36-11.51,16.78.62,7.24,5.48,12.43,13.69,14.5,18.54,4.67,37.15,9.11,55.63,14.02,15.98,4.24,30.42,1.64,44.22-7.45,40.74-26.83,81.67-53.37,122.52-80.01,1.25-.82,2.46-1.76,3.82-2.35,1.82-.78,3.63-.6,4.93,1.14,1.3,1.74,1.01,3.5-.33,5.02-1.32,1.49-2.81,2.84-4.26,4.22-30.65,28.93-61.31,57.85-91.95,86.8-9.34,8.83-8.63,19.39,1.72,27.06,14.03,10.41,28.03,20.85,42.05,31.27-1.73.57-1.93,1.98-2.15,3.55-1.86,13.45-1.36,26.84,1.18,40.13,9.84,51.41,48.84,90.97,100.2,101.77,4.83,1.02,9.72,1.78,14.58,2.67H113.96c-.82-1.52-2.34-.96-3.57-1.14-53.19-8.16-94.63-45.94-107.05-97.46-1.23-5.1-1.22-10.46-3.35-15.35,0-10,0-19.99,0-29.99Z"/>
      <path class="cls-4" d="m372.88,511.83c-4.86-.88-9.75-1.65-14.58-2.67-51.36-10.79-90.36-50.36-100.2-101.77-2.54-13.28-3.04-26.68-1.18-40.13.22-1.57.42-2.97,2.15-3.54,1.24.82,2.52,1.6,3.72,2.48,18.77,13.81,37.46,27.73,56.31,41.43,16.01,11.63,35.73,3.41,38.92-16.08,1.34-8.21,2.59-16.43,3.87-24.65,5.74-36.99,11.48-73.97,17.22-110.96,9.49.25,18.92-.41,28.25-2.19,51.42-9.83,91.11-48.9,101.82-100.22,1.01-4.84,1.79-9.72,2.67-14.58v258.91c-1.94,2.53-1.28,5.68-1.87,8.5-10.7,50.91-40.87,84.22-90.16,100.48-7.17,2.37-14.76,2.7-21.93,4.98h-24.99Z"/>
      <path class="cls-3" d="m511.83,138.95c-.88,4.86-1.66,9.75-2.67,14.58-10.71,51.32-50.4,90.39-101.82,100.22-9.32,1.78-18.76,2.44-28.25,2.19,4.1-26.97,8.22-53.94,12.3-80.92,1.53-10.12,4.64-20.36-1.63-30.07,2.59-2.73,6.23-2.07,9.38-2.72,28.56-5.9,51.17-30.31,55.81-58.94,5.62-34.65-15.84-69.11-48.28-79.53-1.41-.45-2.91-.82-3.82-2.17,49.13,5.97,92.73,45.36,105.06,94.7,1.47,5.87,1.53,12.03,3.92,17.68v24.99Z"/>
      <path class="cls-2" d="m389.77,144.96c6.26,9.71,3.15,19.95,1.63,30.07-4.07,26.98-8.19,53.95-12.3,80.92-5.74,36.99-11.48,73.97-17.22,110.96-1.28,8.22-2.53,16.44-3.87,24.65-3.19,19.49-22.91,27.71-38.92,16.08-18.85-13.7-37.54-27.62-56.31-41.43-1.2-.88-2.48-1.66-3.72-2.48-14.02-10.43-28.02-20.86-42.05-31.27-10.34-7.67-11.06-18.23-1.72-27.06,30.64-28.95,61.3-57.86,91.95-86.8,1.45-1.37,2.94-2.72,4.26-4.22,1.35-1.52,1.63-3.28.33-5.02-1.3-1.74-3.11-1.92-4.93-1.14-1.36.58-2.57,1.53-3.82,2.35-40.86,26.65-81.78,53.19-122.52,80.01-13.8,9.09-28.24,11.69-44.22,7.45-18.48-4.91-37.08-9.35-55.63-14.02-8.21-2.07-13.07-7.26-13.69-14.5-.64-7.42,3.44-13.44,11.51-16.78,86.06-35.58,172.13-71.14,258.2-106.71,1.08-.44,2.13-.93,3.2-1.4,5.83-2.38,11.66-4.74,17.47-7.14,13.66-5.63,22.82-3.52,32.36,7.47Z"/>
    </g>
  </g>
</svg>