<?xml version="1.0" encoding="UTF-8"?>
<svg id="_Слой_2" data-name="Слой 2" xmlns="http://www.w3.org/2000/svg" viewBox="0 0 511.83 511.83">
  <defs>
    <style>
      .cls-1 {
        fill: #fdfefe;
      }

      .cls-1, .cls-2, .cls-3, .cls-4 {
        stroke-width: 0px;
      }

      .cls-2 {
        fill: #2d69a9;
      }

      .cls-3 {
        fill: #4682c2;
      }

      .cls-4 {
        fill: #5f9adb;
      }
    </style>
  </defs>
  <g id="_Слой_1-2" data-name="Слой 1">
    <g>
      <path class="cls-4" d="m0,368.88c0-86.97,0-173.94,0-260.91,2.15.13,1.74-1.69,1.95-2.79C11.9,52.01,52.03,11.89,105.18,1.95c1.1-.21,2.92.2,2.78-1.95h289.9c.16,1.22,1.24.93,1.97,1.22.59.1,1.18.2,1.77.31.75.15,1.49.31,2.24.46,1.3,1.44,3.13,1.84,4.84,2.45,33.34,11.85,53.42,48.57,45.47,83.13-7.67,33.33-36.63,56.38-70.88,56.39-47.14.01-94.29.13-141.43-.04-29.29-.11-57.65,4.77-85.05,15.03-4.42,1.65-9.52,2.14-12.91,6.08-3.53-3.72-7.9-5.13-12.97-5.09-12.6.09-25.2-.05-37.8.06-10.95.09-14.53,4.7-12.6,15.51,1.44,8.03,4.54,15.56,6.58,23.4-14.38,11.69-27.08,25.03-38.19,39.82-24.52,32.64-40.29,69.01-46.09,109.55C1.84,355.13.94,362,0,368.88Z"/>
      <path class="cls-3" d="m0,368.88c.94-6.87,1.84-13.75,2.82-20.62,5.8-40.54,21.57-76.92,46.09-109.55,11.11-14.79,23.81-28.13,38.19-39.82.57,1.18,1.23,2.33,1.71,3.55,14.17,36.2,32.97,69.75,57.63,99.86,17.88,21.82,38.33,40.65,63.95,53.27,14.69,7.24,30.29,10.84,46.5,12.19-1.26,10.28-1.56,20.55-.04,30.84,7.74,52.39,36.61,87.63,85.96,106.42,9.42,3.59,19.41,4.39,29.07,6.81H108.96c.11-.13.23-.25.31-.39.07-.11.1-.24.15-.37-1.07-.39-2.12-.93-3.22-1.15-54.9-10.6-93.66-49.35-104.32-104.27-.21-1.06.36-2.97-1.88-2.79,0-11.33,0-22.66,0-33.99Z"/>
      <path class="cls-2" d="m371.88,511.83c-9.65-2.42-19.65-3.22-29.07-6.81-49.36-18.79-78.23-54.04-85.96-106.42-1.52-10.3-1.22-20.56.04-30.84,6.45-.61,12.99-.11,19.37-1.58,9.1-2.09,11.6-5.17,11.64-14.52.04-11.99-.09-23.99.09-35.97.13-8.64,3.45-11.24,12.05-10.08,2.34.32,4.52,1.05,6.65,2.03,5.8,2.67,10.92,6.35,15.81,10.39,14.96,12.35,27.58,27.02,40.64,41.25,5.27,5.75,11.59,8.68,19.4,8.63,11.49-.08,22.98,0,34.48-.02,13.07-.02,17.78-6.79,13.26-19.09-.57-1.55-1.34-3.04-2.09-4.52-3.88-7.61-9.03-14.36-14.36-20.97-12.05-14.92-25.53-28.53-38.69-42.45-6.22-6.58-6.45-10.17-1.72-17.78,1.57-2.53,3.43-4.88,5.15-7.31,6.99.47,13.94.03,20.89-.83,25.12-3.11,47.58-12.65,66.74-29.04,22.83-19.54,37.61-44.13,43.39-73.85.31-1.58.21-3.44,2.26-4.08v256.92c-2.13-.45-1.74,1.25-1.99,2.36-12.65,55.74-46.82,89.96-102.58,102.6-1.13.26-2.81-.12-2.39,2h-32.99Z"/>
      <path class="cls-3" d="m511.83,147.95c-2.05.64-1.95,2.49-2.26,4.08-5.79,29.72-20.56,54.31-43.39,73.85-19.16,16.4-41.62,25.93-66.74,29.04-6.95.86-13.9,1.29-20.89.83,1.03-1.7,2.01-3.44,3.1-5.09,12.59-19.01,25.19-38,35.73-58.26,3.38-6.5,6.5-13.12,7.97-20.38,1.3-6.41-1.38-10.27-7.93-11.26-2.29-.35-4.64-.46-6.96-.47-10.66-.05-21.33.33-31.96-.12-10.79-.45-17.45,4.11-21.5,14.08-6.45,15.91-14.7,30.95-24.14,45.29-8.41,12.78-16.53,25.85-28.24,36.03-3.48,3.03-7.38,6.97-12.3,4.73-4.96-2.25-4.4-7.74-4.41-12.39-.03-24.14-.01-48.28-.02-72.43,0-2.66-.07-5.29-.7-7.93-1.13-4.7-4.11-7.42-8.76-7.46-20.31-.18-40.63-.28-60.93-.02-7.22.09-10.81,7.52-7.19,13.82.83,1.43,1.84,2.78,2.92,4.04,7.75,9.05,10.73,19.69,10.69,31.4-.05,17.32,0,34.63-.02,51.95,0,2.16.03,4.34-.17,6.49-.89,9.31-5.64,11.58-13.38,6.41-4.74-3.17-8.75-7.17-12.47-11.45-16.21-18.61-28.31-39.77-38.94-61.91-5.62-11.7-8.92-24.36-15.06-35.82,3.39-3.94,8.5-4.42,12.91-6.08,27.4-10.25,55.75-15.14,85.05-15.03,47.14.18,94.29.06,141.43.04,34.26,0,63.22-23.05,70.88-56.39,7.95-34.56-12.13-71.28-45.47-83.13-1.72-.61-3.55-1-4.84-2.45,1.48.11,3,.07,4.45.34,51.73,9.9,92.27,51.2,101.6,103.37.21,1.2-.62,3.33,1.93,3.26v32.99c-1.11,1.33-1.15,2.67,0,4v2Z"/>
      <path class="cls-2" d="m511.83,145.95c-1.15-1.33-1.11-2.67,0-4v4Z"/>
      <path class="cls-1" d="m143.89,165.01c6.15,11.46,9.45,24.12,15.06,35.82,10.62,22.14,22.73,43.3,38.94,61.91,3.73,4.28,7.73,8.28,12.47,11.45,7.74,5.17,12.5,2.9,13.38-6.41.2-2.15.17-4.32.17-6.49.01-17.32-.03-34.63.02-51.95.04-11.72-2.95-22.35-10.69-31.4-1.08-1.26-2.1-2.61-2.92-4.04-3.62-6.29-.03-13.72,7.19-13.82,20.31-.27,40.62-.16,60.93.02,4.64.04,7.63,2.77,8.76,7.46.63,2.64.7,5.27.7,7.93,0,24.14-.01,48.28.02,72.43,0,4.65-.56,10.14,4.41,12.39,4.93,2.24,8.82-1.7,12.3-4.73,11.71-10.18,19.83-23.25,28.24-36.03,9.43-14.34,17.68-29.39,24.14-45.29,4.04-9.97,10.7-14.53,21.5-14.08,10.64.44,21.31.07,31.96.12,2.32.01,4.67.12,6.96.47,6.55.99,9.22,4.85,7.93,11.26-1.47,7.25-4.59,13.88-7.97,20.38-10.54,20.26-23.14,39.26-35.73,58.26-1.1,1.66-2.07,3.39-3.1,5.09-1.73,2.43-3.58,4.79-5.15,7.31-4.74,7.61-4.51,11.19,1.72,17.78,13.16,13.92,26.64,27.53,38.69,42.45,5.34,6.61,10.48,13.36,14.36,20.97.75,1.48,1.52,2.96,2.09,4.52,4.52,12.31-.18,19.07-13.26,19.09-11.49.02-22.99-.05-34.48.02-7.81.05-14.13-2.88-19.4-8.63-13.05-14.23-25.68-28.89-40.64-41.25-4.89-4.04-10.01-7.72-15.81-10.39-2.13-.98-4.31-1.71-6.65-2.03-8.6-1.16-11.92,1.44-12.05,10.08-.18,11.99-.04,23.98-.09,35.97-.03,9.36-2.53,12.44-11.64,14.52-6.38,1.46-12.92.97-19.37,1.58-16.21-1.35-31.81-4.96-46.5-12.19-25.61-12.62-46.07-31.45-63.95-53.27-24.66-30.11-43.46-63.66-57.63-99.86-.48-1.22-1.13-2.37-1.71-3.55-2.04-7.84-5.15-15.38-6.58-23.4-1.94-10.81,1.64-15.42,12.6-15.51,12.6-.1,25.2.04,37.8-.06,5.07-.04,9.44,1.37,12.97,5.09Z"/>
      <path class="cls-3" d="m399.84,1.22c.59.1,1.18.2,1.77.31-.59-.1-1.18-.2-1.77-.31Z"/>
    </g>
  </g>
</svg>